<svg id="Calque_1" xmlns="http://www.w3.org/2000/svg" viewBox="-210.9 132.6 367 60.4"><style>.st0{fill:none;stroke:#e42521;stroke-width:4;stroke-miterlimit:10}.st1{fill:#ff0303}.st2{fill:#fafbfc}</style><path class="st1" d="M56.5 153.7c-.1-.4-.3-1.6-.3-2.6 0-5.6 4.2-10.7 11.8-10.7 7.2 0 11.7 4.7 11.7 10.3 0 4.1-2.2 7.4-6.2 9.8l-6 3.5c-.9.6-1.7 1.2-2.1 2.1h14.5v6.4H56c0-5.8 1.6-10.5 7.4-13.8l5.1-3c2.5-1.5 3.4-2.8 3.4-4.8s-1.4-3.7-4.2-3.7c-3 0-4.4 2-4.4 4.6 0 .6.1 1.3.3 1.9h-7.1zm29.3-7.9c2.1-3.1 5.6-5.4 10.6-5.4 5.1 0 8.6 2.2 10.7 5.4 2.2 3.3 2.8 7.2 2.8 11.1 0 3.9-.6 7.8-2.8 11.1-2.1 3.1-5.6 5.4-10.7 5.4s-8.6-2.3-10.6-5.4c-2.2-3.3-2.8-7.2-2.8-11.1 0-3.9.7-7.8 2.8-11.1zm6.1 17.9c.9 1.7 2.3 2.9 4.6 2.9 2.4 0 3.7-1.2 4.6-2.9.9-1.8 1.2-4.3 1.2-6.8s-.3-5-1.2-6.8c-.9-1.7-2.2-2.9-4.6-2.9-2.3 0-3.7 1.2-4.6 2.9-.9 1.8-1.2 4.3-1.2 6.8s.3 5 1.2 6.8z"/><path class="st2" d="M117.8 164.1v-20.5h-7.5v-5.1c4.7 0 8-2.7 8.6-5.9h6.5V164l-7.6.1zm36.6-25.4c-2.2 1.9-10.9 9.8-12.3 25.3h-7.9c1.3-16.3 11.2-25 11.2-25H130v-6.4h24.4v6.1z"/><path class="st1" d="M156.1 184.4l-4.3-11.7h2.6v-3.9h-8.2l2.2 6-9.1-6h-27.7l-3.2 3.9h29.7z"/><path class="st2" d="M62.2 183.4l2.2-6h-8.1v3.9h2.5L54.6 193l17.9-11.7h37.4l3.2-3.9H71.4zm-273-10.8v-35.7h6v30h16.4v5.7h-22.4zm48.2-7c-1.3 4.3-5.2 7.8-11.1 7.8-6.6 0-12.5-4.8-12.5-13.1 0-7.8 5.7-12.9 11.9-12.9 7.6 0 12 5 12 12.7 0 1-.1 1.8-.2 1.9h-17.9c.2 3.7 3.1 6.4 6.7 6.4 3.5 0 5.3-1.9 6.1-4.3l5 1.5zm-5.6-8c-.1-2.9-2-5.4-6-5.4-3.7 0-5.8 2.8-6 5.4h12zm-3.9-12.6h-4.8l4.5-7.4h6.9l-6.6 7.4zm18.1 27.5c.4 3 2.8 5.3 6.1 5.3 4.6 0 6.9-2.4 6.9-7.3v-2.6c-1.1 1.9-3.5 3.6-7.1 3.6-6.5 0-11.3-5-11.3-11.9 0-6.5 4.6-11.9 11.3-11.9 3.8 0 6.2 1.6 7.2 3.6v-3.1h5.6v22c0 6.5-3.4 12.6-12.6 12.6-6.5 0-11-4-11.7-9l5.6-1.3zm13.3-13c0-4.2-2.7-6.9-6.3-6.9-3.7 0-6.4 2.7-6.4 6.9 0 4.3 2.6 6.9 6.4 6.9 3.7.1 6.3-2.7 6.3-6.9zm14.8-23.9c2.1 0 3.8 1.7 3.8 3.8s-1.7 3.8-3.8 3.8-3.8-1.7-3.8-3.8c0-2.1 1.7-3.8 3.8-3.8zm-2.9 37V148h5.8v24.5l-5.8.1zm15.4-8.1c.2 2.2 1.9 4.2 5 4.2 2.4 0 3.7-1.3 3.7-2.8 0-1.3-.9-2.3-2.9-2.7l-3.6-.8c-4.3-1-6.6-3.8-6.6-7.1 0-4.3 3.9-7.9 9-7.9 6.8 0 9.1 4.4 9.5 6.8l-4.9 1.4c-.2-1.4-1.3-3.7-4.5-3.7-2.1 0-3.5 1.3-3.5 2.8 0 1.3 1 2.3 2.5 2.6l3.7.8c4.6 1 7 3.8 7 7.4 0 3.7-3 7.9-9.3 7.9-7.1 0-9.8-4.6-10.1-7.4l5-1.5zm19.2 8.1v-36.5h5.8v36.4l-5.8.1zm18.4-14.1l6.3-1c1.4-.2 1.8-.9 1.8-1.8 0-2.1-1.4-3.7-4.6-3.7-3.1 0-4.8 2-5 4.4l-5.3-1.2c.5-4.2 4.3-8 10.3-8 7.6 0 10.4 4.3 10.4 9.2v12.2c0 2.2.3 3.7.3 3.9H-67c0-.2-.3-1.2-.3-3.1-1.2 1.9-3.6 3.9-7.6 3.9-5.1 0-8.3-3.5-8.3-7.4 0-4.4 3.2-6.8 7.4-7.4zm8.1 3.9v-1.1l-6.4 1c-1.8.3-3.3 1.3-3.3 3.3 0 1.7 1.3 3.2 3.6 3.2 3.3-.1 6.1-1.6 6.1-6.4zm19.2-14.4h5.1v5.2h-5.1v11.4c0 2.2 1 3.1 3.1 3.1.8 0 1.8-.2 2-.2v4.8c-.4.2-1.5.6-3.6.6-4.5 0-7.3-2.7-7.3-7.3v-12.4h-4.5V148h1.3c2.6 0 3.8-1.7 3.8-3.8v-3.7h5.3l-.1 7.5zm13.1-12.4c2.1 0 3.8 1.7 3.8 3.8s-1.7 3.8-3.8 3.8-3.8-1.7-3.8-3.8c0-2.1 1.7-3.8 3.8-3.8zm-2.9 37V148h5.8v24.5l-5.8.1zm25 0h-5.8l-10-24.5h6.4l6.5 17.5 6.3-17.5h6.1l-9.5 24.5zm34-7c-1.3 4.3-5.2 7.8-11.1 7.8-6.6 0-12.5-4.8-12.5-13.1 0-7.8 5.7-12.9 11.9-12.9 7.6 0 12 5 12 12.7 0 1-.1 1.8-.2 1.9H2.9c.2 3.7 3.1 6.4 6.7 6.4 3.5 0 5.3-1.9 6.1-4.3l5 1.5zm-5.6-8c-.1-2.9-2-5.4-6-5.4-3.7 0-5.8 2.8-6 5.4h12zm13.6 6.9c.2 2.2 1.9 4.2 5 4.2 2.4 0 3.7-1.3 3.7-2.8 0-1.3-.9-2.3-2.9-2.7l-3.6-.8c-4.3-1-6.6-3.8-6.6-7.1 0-4.3 3.9-7.9 9-7.9 6.8 0 9.1 4.4 9.5 6.8l-4.9 1.4c-.2-1.4-1.3-3.7-4.5-3.7-2.1 0-3.5 1.3-3.5 2.8 0 1.3 1 2.3 2.5 2.6l3.7.8c4.6 1 7 3.8 7 7.4 0 3.7-3 7.9-9.3 7.9-7.1 0-9.8-4.6-10.1-7.4l5-1.5z"/></svg>