<svg width="230" height="34" viewBox="0 0 230 34" xmlns="http://www.w3.org/2000/svg"><title>presidentielle 2017</title><g fill="none" fill-rule="evenodd" opacity=".989"><path d="M3.27 14.924v7.52H0V3.165h7.16c3.665 0 6.146 2.487 6.146 5.88 0 3.391-2.424 5.878-6.145 5.878H3.27zm3.383-2.883c2.086 0 3.327-1.13 3.327-2.94 0-1.865-1.24-2.996-3.327-2.996H3.27v5.993h3.383v-.057zm16.802.283c-.338-.057-.733-.057-1.015-.057-2.424 0-3.552 1.414-3.552 3.901V22.5h-3.157V9.158h3.044v2.148c.62-1.47 2.087-2.26 3.834-2.26.395 0 .733.056.846.056v3.222zm14.265 6.331c-.733 2.318-2.82 4.184-5.977 4.184-3.608 0-6.766-2.6-6.766-7.123 0-4.184 3.102-6.954 6.428-6.954 4.06 0 6.484 2.714 6.484 6.897 0 .51-.056.961-.056 1.018H28.19c.057 2.035 1.635 3.448 3.609 3.448 1.917 0 2.875-1.017 3.326-2.317l2.594.847zm-3.045-4.296c-.056-1.526-1.071-2.94-3.27-2.94-1.973 0-3.101 1.527-3.214 2.94h6.484zM32.59 7.52h-2.593l2.424-4.014h3.721L32.59 7.519zm9.866 10.57c.113 1.187 1.015 2.261 2.706 2.261 1.297 0 1.974-.734 1.974-1.526 0-.735-.508-1.244-1.523-1.47l-1.973-.452c-2.312-.509-3.552-2.035-3.552-3.844 0-2.318 2.143-4.297 4.849-4.297 3.665 0 4.905 2.375 5.13 3.675l-2.65.735c-.112-.735-.676-1.979-2.424-1.979-1.127 0-1.917.735-1.917 1.527 0 .735.508 1.243 1.353 1.413l2.03.396c2.481.565 3.778 2.091 3.778 4.013 0 2.036-1.635 4.24-5.018 4.24-3.834 0-5.3-2.487-5.47-4.013l2.707-.679zM54.86 2.487c1.128 0 2.086.905 2.086 2.092 0 1.13-.902 2.035-2.086 2.035a2.024 2.024 0 0 1-2.03-2.035c0-1.187.959-2.092 2.03-2.092zm-1.522 19.956V9.158h3.1v13.229h-3.1v.056zm19.452-2.431c0 1.187.113 2.205.113 2.431h-2.989c-.056-.283-.112-1.187-.112-1.696-.62 1.13-2.03 2.035-3.89 2.035-3.778 0-6.372-2.996-6.372-7.01 0-3.787 2.594-6.953 6.315-6.953 2.312 0 3.496 1.074 3.89 1.922V2.714h3.045v17.298zm-6.54 0c2.086 0 3.495-1.696 3.495-4.24 0-2.544-1.41-4.126-3.496-4.126-2.086 0-3.608 1.582-3.608 4.126 0 2.544 1.466 4.24 3.608 4.24zm22.383-1.357c-.733 2.318-2.819 4.184-5.976 4.184-3.609 0-6.766-2.6-6.766-7.123 0-4.184 3.101-6.954 6.428-6.954 4.06 0 6.484 2.714 6.484 6.897 0 .51-.057.961-.057 1.018h-9.641c.056 2.035 1.635 3.448 3.608 3.448 1.917 0 2.876-1.017 3.327-2.317l2.593.847zM85.59 14.36c-.057-1.526-1.072-2.94-3.27-2.94-1.974 0-3.102 1.527-3.214 2.94h6.484zm9.358 8.083h-3.157V9.158h3.044v1.753c.846-1.527 2.425-2.149 3.89-2.149 3.215 0 4.793 2.318 4.793 5.258v8.367h-3.157v-7.802c0-1.64-.733-2.94-2.706-2.94-1.805 0-2.763 1.414-2.763 3.11v7.688h.056zm16.464-13.285h2.763v2.827h-2.763v6.162c0 1.187.507 1.64 1.691 1.64.451 0 .959-.057 1.072-.114v2.6c-.17.057-.79.283-1.917.283-2.425 0-3.947-1.47-3.947-3.957v-6.614h-2.425V9.158h.677c1.41 0 2.03-.904 2.03-2.092V5.144h2.875v4.014h-.056zm7.555-6.671c1.128 0 2.086.905 2.086 2.092 0 1.13-.902 2.035-2.086 2.035a2.024 2.024 0 0 1-2.03-2.035c0-1.187.903-2.092 2.03-2.092zm-1.579 19.956V9.158h3.102v13.229h-3.102v.056zm18.945-3.788c-.733 2.318-2.82 4.184-5.977 4.184-3.608 0-6.765-2.6-6.765-7.123 0-4.184 3.1-6.954 6.427-6.954 4.06 0 6.484 2.714 6.484 6.897 0 .51-.056.961-.056 1.018h-9.642c.057 2.035 1.635 3.448 3.609 3.448 1.917 0 2.875-1.017 3.326-2.317l2.594.847zm-2.988-4.296c-.057-1.526-1.072-2.94-3.27-2.94-1.974 0-3.101 1.527-3.214 2.94h6.484zm6.202 8.084V2.713h3.157v19.73h-3.157zm7.217 0V2.713h3.157v19.73h-3.157zm18.944-3.788c-.733 2.318-2.819 4.184-5.976 4.184-3.609 0-6.766-2.6-6.766-7.123 0-4.184 3.1-6.954 6.427-6.954 4.06 0 6.484 2.714 6.484 6.897 0 .51-.056.961-.056 1.018h-9.641c.056 2.035 1.635 3.448 3.608 3.448 1.917 0 2.876-1.017 3.327-2.317l2.593.847zm-2.988-4.296c-.056-1.526-1.071-2.94-3.27-2.94-1.974 0-3.101 1.527-3.214 2.94h6.484z" fill="#FAFBFC"/><path d="M173.545 11.815a7.5 7.5 0 0 1-.169-1.47c0-3.165 2.368-5.992 6.597-5.992 4.06 0 6.54 2.657 6.54 5.823 0 2.261-1.24 4.183-3.495 5.483l-3.327 1.979c-.507.34-.958.678-1.184 1.187h8.12v3.618h-13.363c0-3.222.902-5.88 4.172-7.801l2.875-1.696c1.41-.792 1.917-1.527 1.917-2.714 0-1.13-.789-2.091-2.368-2.091-1.635 0-2.48 1.13-2.48 2.6 0 .34.056.735.169 1.074h-4.004zm16.408-4.409c1.184-1.753 3.1-2.997 5.976-2.997s4.85 1.244 5.977 2.997c1.24 1.865 1.522 4.07 1.522 6.218 0 2.148-.338 4.41-1.522 6.219-1.184 1.752-3.101 2.996-5.977 2.996-2.875 0-4.792-1.3-5.976-2.996-1.24-1.866-1.523-4.07-1.523-6.219 0-2.148.282-4.41 1.523-6.218zm3.383 10.062c.507.961 1.297 1.64 2.593 1.64 1.354 0 2.087-.679 2.594-1.64.507-1.017.677-2.43.677-3.844 0-1.413-.17-2.826-.677-3.844-.507-.961-1.24-1.64-2.594-1.64-1.296 0-2.086.679-2.593 1.64-.508 1.018-.677 2.43-.677 3.844.057 1.413.226 2.827.677 3.844z" fill="#FF0303"/><path d="M207.882 17.638V6.162h-4.228V3.335c2.65 0 4.51-1.526 4.792-3.335h3.665v17.638h-4.229zm20.524-14.19c-1.24 1.075-6.146 5.54-6.879 14.246h-4.454c.733-9.158 6.315-14.076 6.315-14.076h-8.627V0h13.701v3.448h-.056z" fill="#FAFBFC"/><path fill="#FF0303" d="M229.308 29.057l-2.368-6.5h1.466V20.35h-4.567l1.184 3.336-5.131-3.336h-15.449l-1.804 2.205h16.633z"/><path fill="#FAFBFC" d="M176.703 28.549l1.24-3.336h-4.567v2.148h1.466l-2.424 6.558 10.092-6.558h20.975l1.804-2.148h-23.455z"/></g></svg>