<svg width="112" height="20" viewBox="0 0 112 20" xmlns="http://www.w3.org/2000/svg" xmlns:xlink="http://www.w3.org/1999/xlink"><title>XS/Gratuit/Logo</title><defs><linearGradient x1="50%" y1="100%" x2="50%" y2="0%" id="a"><stop stop-color="#8F98A9" offset="0%"/><stop stop-color="#BDC6D7" offset="100%"/></linearGradient><path d="M93.978 15.367c-1.06 0-1.918.864-1.918 1.928 0 1.041.905 1.927 1.942 1.927 1.035 0 1.893-.886 1.893-1.95a1.891 1.891 0 0 0-1.917-1.905" id="b"/><filter x="-39.1%" y="-38.9%" width="178.2%" height="177.8%" filterUnits="objectBoundingBox" id="c"><feGaussianBlur stdDeviation="1.5" in="SourceAlpha" result="shadowBlurInner1"/><feOffset in="shadowBlurInner1" result="shadowOffsetInner1"/><feComposite in="shadowOffsetInner1" in2="SourceAlpha" operator="arithmetic" k2="-1" k3="1" result="shadowInnerInner1"/><feColorMatrix values="0 0 0 0 0 0 0 0 0 0 0 0 0 0 0 0 0 0 0.3 0" in="shadowInnerInner1"/></filter><linearGradient x1="50%" y1="0%" x2="50%" y2="99.562%" id="d"><stop stop-color="#BDC6D7" offset="0%"/><stop stop-color="#8F98A9" offset="100%"/></linearGradient><path d="M108.131 8.632h-.068V6.853h-6.345v-.677c0-.304-.17-2.115 1.294-2.422.67-.14 1.239.228 1.591.52l2.556-1.652c-1.028-1.16-2.55-1.505-3.858-1.426-.928.057-4.64.611-4.64 4.725v.932h-1.762V8.76h1.761V19.1h3.058V8.76h3.284l.006 10.34h3.055v-6.54c.052-2.028.68-3.304 3.807-3.41l.097-2.742c-2.144.139-3.258 1.282-3.836 2.224" id="e"/><filter y="-8.4%" width="119.9%" height="116.7%" filterUnits="objectBoundingBox" id="f"><feGaussianBlur stdDeviation="1.5" in="SourceAlpha" result="shadowBlurInner1"/><feOffset in="shadowBlurInner1" result="shadowOffsetInner1"/><feComposite in="shadowOffsetInner1" in2="SourceAlpha" operator="arithmetic" k2="-1" k3="1" result="shadowInnerInner1"/><feColorMatrix values="0 0 0 0 0 0 0 0 0 0 0 0 0 0 0 0 0 0 0.3 0" in="shadowInnerInner1"/></filter></defs><g fill="none" fill-rule="evenodd"><path d="M11.116 3.428c-.076-.359-.691-1.182-1.38-1.182a1.26 1.26 0 0 0-.358.053c.664.257 1.175.923 1.33 1.387l.382-.231v-.027h.026M15.61 19.36l-2.557-1.696c-.307-.204-.665-.59-.665-1.309v-6.143l-.256.155-.101.051v6.116c0 .515.28 1.054.663 1.311l2.584 1.722.332-.206M4.725 13.193c.051-1.053-.177-2.338-.408-3.573-.23-1.258-.436-2.544-.41-3.673.026-.693.154-1.361.435-1.978-.486.745-.792 1.592-.818 2.492-.077 2.184.971 5.036.868 7.247-.025.334-.05.668-.075.899l.05-.052c.206-.283.333-.72.358-1.362M8.1 19.31c-.384-.797-1.303-1.284-2.377-1.284-.103.024-.205.024-.307.024 1.048.181 1.942.771 2.275 1.517l.408-.257m9.067-9.072l-.87-1.002.027.668.459.566.384-.232m24.272-5.37L39.392 3.66l.307-.204 1.969 1.156a2.214 2.214 0 0 0-.23.257m.511 14.647l-.895-.618c-.588-.41-.895-1.105-.895-1.875V8.439c0-1.182.257-2.005.665-2.569-.23.564-.333 1.258-.333 2.056l.026 8.788c0 .95.281 1.568.946 2.03l.819.566-.333.206m-7.259-.078s-.078.052-.128.078h-.205V5.176c0-.693-.05-.693-.46-1.002l-.588-.462.384-.206c.307.256.767.617.767.643.18.18.23.282.23.693v14.621-.025M24.284 1.887c-.204.591-.178 1.156.077 1.62.231.41.64.693 1.126.821-1.509.129-2.173-1.079-1.203-2.441m3.989 12.36c.127-.411.18-.874.18-1.362V5.407c0-.9-.053-1.001-.36-1.284h.052c.434-.078.664 0 .664.77v7.504c0 .874-.152 1.439-.536 1.85m.459 5.269c-.203-.669-.817-1.234-1.891-1.389.154-.024.307-.024.461-.024 1.328.024 1.712.846 1.789 1.104l.025.076-.384.233m37.833-.18l-.766-.462c-.69-.413-1.049-1.054-1.049-2.031V9.879c0-.411-.024-.385-.179-.514 0 0-.536-.437-.894-.72l-.383.207.74.564c.41.308.36.334.36.951v6.758c0 .925.382 1.567.919 1.877l.92.514.332-.18m-7.158.127V9.005l-.332-.385-.409.232.383.436v10.228h.206c.05-.026.127-.053.127-.053h.025m-8.097-.076l-2.94-1.774c-.589-.36-.818-.796-.818-1.567v-5.808l-.256.129-.103.051v5.91c0 .695.306 1.207.844 1.517l2.939 1.722.333-.18m1.585-3.289v-5.86c0-.308-.1-.412-.332-.54L51.36 8.98v.386l.69.385c.512.282.512.334.512.874l-.025 5.268.357.206M76.197 5.51v-.077c0-.72-.434-1.464-1.1-1.85-.255-.155-.484-.283-.484-.283l-.307.206.178.102c.869.49 1.357 1.106 1.357 2.107l.356-.205m9.309 13.85l-2.582-1.696c-.306-.204-.665-.59-.665-1.309v-6.143l-.256.155-.103.051v6.038c0 .67.257 1.132.69 1.415l2.557 1.696.359-.206m-10.893-.001l-2.763-1.747c-.662-.41-.791-.796-.791-1.543v-5.523l-.205.103-.153.077V16.2c0 .875.282 1.26.716 1.542l2.862 1.825.334-.206m12.295-9.123l-.869-1.002.026.668.459.566.384-.232" fill="#8F98A9"/><path d="M18.035 10.367l-2.301 1.439V8.053l.205-.127 2.096 2.441zm2.684-.565l-3.426-3.804-5.343 3.135v.72l1.1-.617v7.12c0 .41.153.667.408.847l2.838 1.85 4.014-2.34-.332-.719-2.097 1.131-1.891-1.311c-.23-.153-.256-.308-.256-.642V12.86l4.985-3.057zm-6.586-6.837c-.46-.72-1.687-2.055-4.116-2.055-2.914-.025-5.47 2.262-5.572 5.037-.078 2.21.97 5.062.868 7.272-.05.746-.205 1.286-.51 1.696l.305.361 1.79-1.31c.87-.645 1.356-1.44 1.33-2.828-.026-1.722-.819-4.369-.819-6.398 0-1.748.665-3.059 2.174-3.059 1.023 0 1.84 1.053 1.968 1.645.052.282 0 .41-.256.59l-.715.49v.796l3.553-2.237zM11.677 17.05l-.306-.617-.79.513c-.588-.72-1.535-1.568-3.784-1.568-2.378-.025-5.293 1.876-6.622 3.52l.23.309c1.815-1.209 3.682-1.747 5.318-1.747 1.33 0 2.428.643 2.888 1.593l3.066-2.003zm33.75-13.776c-1 .59-1.331 1.388-1.331 2.622v9.84c0 .62.077.9.409 1.081l.333.18.92-.54.307.618-3.196 1.927-1.099-.746c-.487-.334-.692-.745-.692-1.542V7.926c0-1.644.513-2.52 1.229-3.058l.409-.308-3.017-1.774-1.355.822v12.798c0 1.079-.153 1.233-1.1 1.721 0 0-.74.36-1.76.9h-.206V4.842c0-.693-.078-.848-.461-1.156l-1.073-.873-1.304.744v7.35c0 1.284-.204 2.21-1.227 2.851l-2.556 1.62-.257-.436c.794-.618.972-1.493.972-2.52V4.919c0-1.105-.152-1.542-1.304-1.336a37.29 37.29 0 0 1-1.508.23c-1.687.232-2.404-.976-1.253-2.491 0 0 .282-.386.997-1.312l.564.387-.41.59c-.537.772-.102 1.183.768.874a71.8 71.8 0 0 0 1.763-.694c2.427-.95 3.323.617 3.45 1.543L35.458.885l2.605 2.004 3.22-2.004 2.48 1.414c.844.487 1.253.282 1.841-.027l.486-.257.383.643-1.046.616zM29.654 19.027c-.256-.72-.997-1.465-2.327-1.516-1.253-.026-3.043.463-4.524 1.594l-.282-.36c1.074-1.183 3.58-3.084 6.211-3.11 1.382 0 2.353.463 3.043 1.208l1.152-.643.332.669-3.605 2.158zm23.802-2.055l-.152.026-2.098-1.235c-.356-.205-.435-.437-.435-.9l.027-6.758.153-.052 2.02 1.183c.408.232.485.438.485.874v6.862zm16.484.385l-.255-.592-.947.541-.33-.206c-.359-.206-.436-.464-.436-1.08V8.645c0-.592-.127-.848-.486-1.105l-1.97-1.49-3.041 1.747-1.61-1.748-3.222 1.98.436.512 1.098-.666.792.899v10.228h.205c1.279-.567 1.688-.746 1.688-.746.613-.258.793-.463.793-1.181V8.54l1.049-.615 1.227.976c.33.283.382.514.382.95l.026 6.99c0 .771.23 1.208.74 1.517l1.075.643 2.786-1.645zm-12.674-1.465l-.23-.566-.895.463V8.825c0-.359-.127-.642-.485-.849l-3.299-1.978-5.343 3.135v.746l1.1-.643v6.81c0 .616.152.848.537 1.08l3.246 1.927 5.369-3.161zm30.512-5.525l-2.301 1.439V8.053l.23-.127 2.07 2.441zm2.71-.565l-3.452-3.804-5.343 3.135v.72l1.1-.617v7.12c0 .41.152.667.408.847l2.838 1.85 4.013-2.34-.306-.719-2.096 1.131-1.892-1.311c-.257-.18-.281-.308-.281-.642V12.86l5.01-3.057zm-9.945 6.116l-.23-.592-.92.488V4.919c0-1.593-.715-2.62-1.891-3.34l-1.15-.72-3.606 2.106.716.335 1.177-.642.765.436a2.736 2.736 0 0 1 1.356 2.34v.41L70.574 9.44v.694l1.047-.565v6.528c0 .564.153.796.511 1.027l3.068 1.928 5.343-3.135zm-3.783 1.054l-.153.026-1.816-1.184c-.357-.23-.485-.411-.485-.872V8.389l2.275-1.39.179.104v9.869z" fill="#1A171B"/><use fill="url(#a)" xlink:href="#b"/><use fill="#000" filter="url(#c)" xlink:href="#b"/><use fill="url(#d)" xlink:href="#e"/><use fill="#000" filter="url(#f)" xlink:href="#e"/></g></svg>