<svg width="35" height="36" viewBox="0 0 35 36" xmlns="http://www.w3.org/2000/svg"><title>ic-comparateur</title><g fill="none" fill-rule="evenodd"><g opacity=".4"><path d="M11.293 0C9.503 0 8 1.426 8 3.186V5.31h6.69V3.186C14.69 1.426 13.083 0 11.293 0" fill="#190A52"/><path d="M26.686 1c2.02 0 3.657 1.652 3.657 3.691V18.31C30.343 20.347 31.98 22 34 22H18.314c-2.02 0-3.657-1.653-3.657-3.691V4.69C14.657 2.652 13.02 1 11 1h15.686z" stroke="#190A52" stroke-width="1.5" stroke-linecap="round" stroke-linejoin="round"/></g><g opacity=".8" stroke="#190A52"><path d="M11.673 23.498l-1.645 1.621" stroke-width="3" stroke-linecap="round" stroke-linejoin="round"/><path fill="#190A52" stroke-linecap="round" stroke-linejoin="round" d="M1.797 34.66l-1.53-1.507 8.958-8.83 1.529 1.508z"/><path d="M26.362 17.146a8.583 8.583 0 1 1-17.167 0 8.583 8.583 0 0 1 17.167 0z" stroke-width="2" stroke-linecap="round" stroke-linejoin="round"/><path d="M18.5 14.5h7m-7 2h7m-7-4h6m-6-2h5" stroke-linecap="square"/></g></g></svg>