<svg width="196" height="290" viewBox="0 0 196 290" xmlns="http://www.w3.org/2000/svg"><title>offre-speciale_5</title><g fill="none" fill-rule="evenodd"><g transform="translate(1 252)"><rect fill="#B80B08" y="4" width="135" height="32" rx="5"/><rect fill="#FF0502" width="135" height="32" rx="5"/></g><path d="M22.9 270.7v-7.5h-2.96v7.42c0 .77-.35 1.06-.96 1.06-.4 0-.63-.06-.82-.13v2.5c.42.08.8.13 1.52.13 2.53 0 3.23-1.76 3.23-3.5zm8.66 3.3v-2.58H28.2v-1.74h3.18v-2.43H28.2v-1.52h3.36v-2.53h-6.32V274h6.32zm19.03 0l-1.8-10.8h-3.3l-1.2 3.76c-.2.56-.5 1.58-.6 2.5h-.1c-.2-.8-.4-1.83-.6-2.45l-1.1-3.8h-3.4L36.8 274h3l.44-3.42c.1-.8.2-1.85.3-2.92h.03c.14 1.08.45 2.4.74 3.4l.9 2.98h2.7l.9-3.27c.3-1 .5-2.16.7-3.1h.1c.1.92.2 1.95.3 2.67l.6 3.7h3.1zm14.1 0h-3.3l-.6-1.76h-3.3L57 274h-2.9l3.43-10.8h3.57l3.6 10.8zm-4.5-4.1l-.6-1.98c-.2-.53-.3-1.04-.4-1.52h-.1c-.1.48-.2 1-.4 1.54l-.6 1.96H60zm14 .64c0 1.96-1.5 3.5-4.6 3.5-.7 0-2-.04-3.8-.04v-10.78c1.1-.07 2.8-.1 4.2-.1 2.3 0 3.8.9 3.8 2.78 0 .96-.5 1.83-1.3 2.26v.05c.9.4 1.6 1.3 1.6 2.4zm-3.5-4.17c0-.56-.5-.88-1.2-.88h-.8v1.8h.6c.9 0 1.2-.4 1.2-1zm.2 4.2c0-.55-.5-1-1.4-1-.1 0-.6 0-.8.03v2c.2.02.5.03.8.03.8 0 1.3-.38 1.3-1.05zm15-2.2c0 3.57-2.5 5.85-5.5 5.85-3.4 0-5.1-2.04-5.1-5.4 0-3.56 2.4-5.84 5.5-5.84 3.4 0 5 2.04 5 5.4zm-3.2.3c0-1.9-.7-2.97-2.1-2.97-1.3 0-2.2 1-2.2 2.83 0 1.9.6 2.96 2.1 2.96 1.3 0 2.1-1 2.1-2.9zM97.1 274v-10.8h-2.8v2.66c0 1 .04 3.1.12 3.84-.2-.7-.5-1.5-.8-2.15l-2-4.35H87.7V274h2.84v-2.8c0-1.18-.05-3.17-.12-3.8.15.62.4 1.27.74 2.06l2.1 4.54h3.88zm11.83 0v-10.8h-2.83v2.66c0 1 .03 3.1.1 3.84-.18-.7-.48-1.5-.8-2.15l-2-4.35h-3.9V274h2.82v-2.8c0-1.18-.04-3.17-.1-3.8.14.62.38 1.27.73 2.06L105 274h3.9zm8.7 0v-2.58h-3.33v-1.74h3.17v-2.43h-3.15v-1.52h3.34v-2.53h-6.34V274h6.32z" fill="#FFF"/><path d="M80.27 204h-3.2v-.97c.26-.05.56-.1.83-.13l-.34-1.04h-2.92l-.35 1.04c.2.02.6.08.8.13v.97h-3v-.97c.2-.06.4-.1.6-.12l2.4-7h2l2.4 7 .6.2v1zm-3.07-3.35l-.72-2.07c-.14-.44-.27-.84-.38-1.28-.12.44-.22.84-.37 1.3l-.72 2.05h2.2zm10.44.85c0 1.18-.8 2.52-3.25 2.52L82 204h-1.04v-.97c.3-.07.68-.13 1.04-.16v-5.84c-.36-.03-.73-.1-1.04-.16v-.97h1c.64 0 1.7-.05 2.67-.05 1.75 0 2.7.7 2.7 2 0 .8-.38 1.5-1.15 1.82v.02c.95.2 1.46 1 1.46 1.8zm-1.94-3.4c0-.6-.36-1-1.32-1-.32 0-.54.02-.82.04v2.1c.2.02.38.02.63.02 1 0 1.5-.43 1.5-1.15zm.26 3.44c0-.8-.7-1.12-1.7-1.12-.13 0-.53 0-.7.02v2.26c.18.03.52.05.88.05 1.02 0 1.52-.5 1.52-1.2zm10.5-1.72c0 2.7-1.78 4.3-3.95 4.3-2.4 0-3.6-1.56-3.6-4.04 0-2.7 1.8-4.3 4-4.3 2.5 0 3.7 1.56 3.7 4.04zm-1.64.18c0-1.7-.7-2.83-2.16-2.83-1.25 0-2.18.96-2.18 2.7 0 1.74.7 2.86 2.16 2.86 1.25 0 2.18-.96 2.18-2.73zm11.3-3.12v-.98h-3.1v.98c.26.08.54.12.83.15 0 2.2 0 3.7.1 5-.25-.6-.57-1.3-.9-1.9l-2.43-4.23h-3.16v.97c.32.07.7.13 1.05.16v5.84c-.3.03-.7.1-1 .16v.97h3.4v-.98c-.2-.08-.6-.12-.8-.15 0-2.24 0-3.84-.1-5.06.3.7.6 1.4.9 2l2.5 4.3h2.1v-6.9c.3 0 .6-.1.8-.1zm9.74 0v-.98h-3.1v.98c.26.08.54.12.83.15 0 2.2 0 3.7.1 5-.3-.6-.6-1.3-.9-1.9l-2.5-4.23h-3.2v.97c.3.07.7.13 1 .16v5.84c-.4.03-.8.1-1.1.16v.97h3.4v-.98c-.3-.08-.6-.12-.9-.15 0-2.24 0-3.84-.1-5.06.2.7.5 1.4.9 2l2.5 4.2h2.1v-6.9c.2 0 .5-.1.7-.1zm6.64 7.12v-2.12h-1.18c-.06.3-.1.58-.14.86h-1.63v-2.34h1.3c.04.22.08.46.14.66h1v-2.44h-1c-.1.2-.1.44-.2.66h-1.3v-2.16h1.6l.1.82h1.1v-2.04h-5.5v.97c.3.07.7.13 1 .16v5.84c-.4.03-.8.1-1.1.16v.97h5.5zm12.2 0v-.97c-.18-.05-.46-.1-.66-.12l-.9-5.8c.35 0 .7-.1 1-.1v-1H131l-1.36 4.1c-.2.6-.33 1.1-.45 1.7h-.1c-.1-.6-.3-1.2-.5-1.7l-1.4-4.1H124v1c.3.1.63.2 1 .2l-.9 5.9c-.2.1-.5.1-.67.2v1h3.06v-.9c-.3 0-.6-.1-.8-.1l.4-3.3c.1-.6.1-1.4.2-2 .1.6.2 1.2.4 1.8l1.5 4.7h1.4l1.6-4.8.3-1.6c0 .6.1 1.3.2 2l.4 3.4c-.3 0-.6.1-.9.14v.94h3.1zm6.54 0v-2.12h-1.18c-.06.3-.1.58-.14.86h-1.64v-2.34h1.3c.05.22.08.46.14.66h1v-2.44h-1c-.04.2-.1.44-.13.66h-1.4v-2.16h1.6c0 .24.1.52.1.82h1.1v-2.04h-5.6v.97c.3.07.7.13 1 .16v5.84c-.4.03-.7.1-1.1.16v.97h5.6zm9.86-7.12v-.98H148v.98c.26.08.54.12.83.15 0 2.2 0 3.7.1 5-.25-.6-.57-1.3-.9-1.9l-2.43-4.23h-3.16v.97c.32.07.7.13 1.05.16v5.84c-.4.03-.8.1-1.1.16v.97h3.4v-.98c-.3-.08-.6-.12-.9-.15 0-2.24-.1-3.84-.2-5.06.2.7.5 1.4.9 2l2.4 4.3h2.1v-6.9c.2 0 .5-.1.7-.1zm7.43 1.3v-2.28h-6.63v2.28h1.15c.06-.37.12-.7.14-1h1.2v5.7c-.4.02-.8.08-1.1.15v.97h3.7v-.97c-.3-.07-.7-.13-1.1-.16v-5.7h1.2l.2 1h1.1z" fill="#1E0F64"/><path d="M103.43 211.62c0 1.35-1 2.16-2.08 2.16-1.14 0-1.92-.68-1.92-2 0-1.36.97-2.13 2.04-2.13 1.1 0 1.96.56 1.96 1.97zm-1.3.08c0-.74-.23-1-.7-1-.4 0-.7.38-.7 1 0 .74.24 1.02.68 1.02.5 0 .8-.36.8-1.02zm5.16-1.32l-5.9 7.93-1.1-.7 5.8-7.9 1.1.8zm.9 5.7c0 1.37-1 2.17-2.1 2.17-1.2 0-2-.67-2-2 0-1.36.9-2.13 2-2.13s1.9.57 1.9 1.97zm-1.3.1c0-.75-.3-1-.7-1-.4 0-.7.37-.7 1 0 .74.2 1.02.7 1.02.4 0 .7-.36.7-1.02zm14-5.3v-.98h-3.1v.98c.2.08.5.12.8.15 0 2.2 0 3.7.1 5-.3-.6-.6-1.3-.9-1.9l-2.4-4.23h-3.2v.97c.3.07.6.13 1 .16v5.84c-.4.03-.8.1-1.1.16v.97h3.4v-.98c-.3-.08-.6-.12-.9-.15 0-2.24-.1-3.84-.1-5.06.2.7.5 1.4.9 2l2.4 4.3h2.1v-6.9c.3 0 .5-.1.7-.1zm8.9 0v-.98h-3.2v.98c.2.08.5.12.8.15v3.92c0 1.42-.6 1.93-1.8 1.93-1.4 0-1.7-.73-1.7-1.78v-4.07c.3-.03.6-.07.8-.15v-.98h-3v.98c.2.06.5.1.7.15v4.16c0 1.5.5 2.9 3.1 2.9 2.1 0 3.3-1.1 3.3-3.3V211l.7-.14zm11.9 7.12v-.97c-.2-.05-.5-.1-.7-.12l-.9-5.8c.3 0 .7-.1 1-.1v-1H138l-1.34 4.1c-.2.6-.35 1.1-.47 1.7h-.1c-.1-.6-.3-1.2-.5-1.7l-1.4-4.1H131v1c.3.1.62.2 1 .2l-.9 5.9c-.2.1-.5.1-.68.2v1h3.04v-.9c-.2 0-.5-.1-.8-.1l.4-3.3c.1-.6.16-1.4.2-2 .1.6.23 1.2.43 1.8l1.5 4.7h1.5l1.5-4.8.3-1.6c0 .6.1 1.3.2 2l.4 3.4-.9.14v.94h3.1zm6.5 0v-2.12H147c-.04.3-.1.58-.12.86h-1.6v-2.34h1.3c.03.22.06.46.12.66h1v-2.44h-1c0 .2-.1.44-.1.66h-1.3v-2.16h1.6l.14.82h1.14v-2.04h-5.5v.97c.3.07.68.13 1.04.16v5.84c-.37.03-.74.1-1.05.16v.97h5.5zm-.7-9.23l-.4-1.1-2.5.9.2.84 2.5-.6zm8.8 9.23h-2l-1.9-3.36h-.5v2.23c.2.03.5.07.7.15v.98h-3.4v-.97c.3-.07.7-.13 1-.16v-5.84c-.4-.03-.78-.1-1.1-.16v-.97h.93c.3 0 1.6-.05 2.5-.05 1.8 0 3 .63 3 2.3 0 1.1-.7 1.87-1.8 2.14.1.1.3.4.4.6l1.12 1.9c.2 0 .5 0 .8.1v1zm-2.2-5.74c0-.8-.5-1.18-1.5-1.18-.2 0-.6 0-.7.03v2.4h.7c.9 0 1.5-.4 1.5-1.2zM161 218v-.97c-.33-.07-.7-.13-1.06-.16v-5.84c.4-.03.76-.1 1.08-.16v-.97h-3.66v.97c.3.07.7.13 1.05.16v5.84c-.3.03-.7.1-1 .16v.97h3.6zm9 .8c-2.1.3-2.4-.67-4-.67h-.35c-2.45 0-3.68-1.57-3.68-4.05 0-2.7 1.77-4.3 3.95-4.3 2.43 0 3.67 1.56 3.67 4.04 0 1.62-.7 2.88-1.7 3.4.6.02 1 .38 2.1.25v1.32zm-2-4.8c0-1.7-.7-2.83-2.15-2.83-1.25 0-2.18.96-2.18 2.7 0 1.74.7 2.86 2.16 2.86 1.23 0 2.15-.96 2.15-2.73zm10.64-3.12v-.98h-3.16v.98c.23.08.54.12.83.15v3.92c0 1.42-.5 1.93-1.7 1.93-1.3 0-1.6-.73-1.6-1.78v-4.07c.3-.03.6-.07.9-.15v-.98h-3.2v.98l.8.15v4.16c0 1.5.6 2.9 3.2 2.9 2.2 0 3.4-1.1 3.4-3.3V211c.3-.03.5-.1.8-.14zm6.6 7.12v-2.12h-1.17l-.14.86h-1.64v-2.34h1.3c0 .22 0 .46.1.66h1v-2.44h-1c-.1.2-.1.44-.2.66h-1.3v-2.16h1.6l.1.82h1.1v-2.04h-5.5v.97c.3.07.7.13 1 .16v5.84c-.4.03-.8.1-1.1.16v.97h5.6zm-108.02 0v-1.23c-.4-.08-.87-.15-1.26-.18v-6.5H74.5l-2.33.8.3 1.5 1.54-.7v4.6c-.5 0-1.1.1-1.5.1v1.3h4.8zm8.94-4c0 2.66-1.94 4.18-4.1 4.18-2.1 0-3.84-1.1-3.84-4 0-2.6 1.88-4.16 4.1-4.16 2.8 0 3.84 1.84 3.84 4zm-1.92.1c0-1.42-.66-2.43-2.02-2.43-1.13 0-2.1.87-2.1 2.42 0 1.4.64 2.4 2.03 2.4 1.16 0 2.1-.9 2.1-2.5zm11.1-.1c0 2.66-1.94 4.18-4.1 4.18-2.1 0-3.83-1.1-3.83-4 0-2.6 1.9-4.16 4.1-4.16 2.8 0 3.9 1.84 3.9 4zm-1.92.1c0-1.42-.66-2.43-2.03-2.43-1.2 0-2.1.87-2.1 2.42 0 1.4.6 2.4 2 2.4 1.1 0 2-.9 2-2.5zM81.1 182.6c0 2.22-1.6 3.9-4.43 3.9-.3 0-.57-.02-.83-.04v2.04c.48.03.98.1 1.4.2v1.3h-4.87v-1.3c.4-.1.9-.17 1.4-.2v-7.8c-.5-.03-1-.1-1.4-.2v-1.3h1.4c.47 0 1.9-.06 3.06-.06 2.9 0 4.26 1.4 4.26 3.47zm-2.17.23c0-1.07-.55-2-2.23-2-.28 0-.62 0-.86.03v3.84c.2.05.56.08.94.08 1.4 0 2.15-.8 2.15-1.95zm13.6 1.6c0 3.6-2.38 5.75-5.27 5.75-3.27 0-4.9-2.1-4.9-5.4 0-3.6 2.37-5.76 5.27-5.76 3.26 0 4.9 2.1 4.9 5.4zm-2.2.24c0-2.3-.94-3.77-2.88-3.77-1.66 0-2.9 1.28-2.9 3.6 0 2.32.95 3.8 2.88 3.8 1.67 0 2.9-1.28 2.9-3.63zm14.17-4.16v-1.3h-4.2v1.3c.36.1.78.2 1.16.2v5.3c0 1.9-.7 2.6-2.3 2.6-1.78 0-2.2-.9-2.2-2.3v-5.4c.36 0 .77-.1 1.14-.2v-1.3h-4.24v1.3c.3.1.66.2 1 .2v5.6c0 2.1.78 3.9 4.2 3.9 2.87 0 4.45-1.4 4.45-4.3V181c.4-.03.7-.1 1-.2zm10.78 9.5h-2.7l-2.47-4.4h-.7v3c.3.1.7.1 1 .2v1.3H106v-1.3c.42-.1.9-.1 1.4-.2v-7.8c-.5 0-.98-.1-1.4-.2v-1.3h4.65c2.45 0 4 .9 4 3.1 0 1.5-.95 2.5-2.4 2.9l.53.8 1.57 2.7 1 .2v1.3zm-2.9-7.6c0-1-.64-1.6-2.04-1.6-.26 0-.74 0-.95.1v3.1h.9c1.2 0 2-.6 2-1.6zm34.3 7.7v-1.3c-.23 0-.6-.1-.87-.1l-1.2-7.8c.5 0 1-.1 1.4-.2v-1.3h-4.2l-1.8 5.5-.6 2.3c-.1-.8-.4-1.6-.6-2.3l-1.8-5.4h-4.2v1.3c.4.1.9.2 1.4.2l-1.2 7.9c-.3 0-.6.1-.9.2v1.3h4V189c-.3-.07-.7-.15-1.1-.18l.6-4.4c.1-.8.2-1.8.3-2.7.1.7.3 1.5.6 2.4l2 6.2h2l2.1-6.4c.2-.7.4-1.44.5-2.16h.1c.1.8.2 1.65.3 2.67l.6 4.4c-.4 0-.8.1-1.1.16v1.3h4.1zm11.38-5.5c0 3.6-2.38 5.8-5.28 5.8-3.26 0-4.9-2.1-4.9-5.4 0-3.6 2.38-5.7 5.27-5.7 3.27 0 4.9 2.1 4.9 5.4zm-2.2.3c0-2.3-.95-3.7-2.88-3.7-1.67 0-2.9 1.3-2.9 3.6 0 2.4.94 3.8 2.88 3.8 1.66 0 2.9-1.2 2.9-3.6zm8.4 5.4V189c-.43-.1-.92-.16-1.4-.2V181c.48 0 .97-.1 1.4-.2v-1.3h-4.87v1.3c.4.1.9.2 1.3.2v7.8c-.5.04-1 .1-1.4.2v1.3h4.8zm8.3-3.3c0-3.4-4.7-2.6-4.7-4.6 0-.7.58-1.3 1.7-1.3.24 0 .5.1.65.1.1.4.1.9.2 1.3h1.6v-2.8c-.7-.1-1.4-.2-2.2-.2-2.5 0-4 1.3-4 3.3 0 3.6 4.7 2.7 4.7 4.7 0 1.1-.7 1.5-1.7 1.5-.3 0-.7-.1-.9-.1 0-.4-.1-.8-.2-1.3H166v2.8c.72.2 1.57.3 2.45.3 2.6 0 4.2-1.5 4.2-3.5zm-48.5-7.6c-.87 0-1.64.2-2.34.5v2.3h1.22c.06-.4.12-.7.14-1 .22-.1.52-.1.75-.1.83 0 1.27.5 1.27 1.3 0 1.1-1 1.8-3.05 1.8v1.58c1.9-.2 3.18.18 3.18 1.4 0 1-.84 1.6-2.12 1.6-.5 0-1-.05-1.4-.2l-.1 1.7c.5.1 1.1.2 1.5.2 2.7 0 4.3-1.43 4.3-3.4 0-1.2-.7-2.1-1.9-2.4 1.1-.47 1.8-1.37 1.8-2.45 0-1.5-.9-2.6-3.1-2.6zM25.96 218v-5.74c-1.9-.35-4.08-.7-5.9-.84v-29.96H13.1l-10.78 4.06 1.4 7.14 7.14-3v21.76c-2.68.14-5.27.5-7.37.84V218h22.4zm25.4-20.6v-3.73H40.54c.86-5.34 3.35-8.15 8.37-8.15 1.5 0 2.6.16 3.5.6.2 1.13.4 2.53.7 3.72h4.4v-8.9c-2.4-.66-5.3-.98-7.6-.98-9.8 0-15.1 4.9-16.7 13.7h-4.3v3.74h3.9v2.32c0 .54 0 1.13.1 1.67H29v3.7h4c1.4 8.5 6.3 12.4 15.65 12.4 3.3 0 7.27-.6 9.8-1.8l-1.57-5.3c-2 1-4.8 1.3-7.17 1.3-5.3 0-7.8-2.7-8.8-6.8h10.5v-3.8H40.2v-4h11.2z" fill="#FF0502"/><path d="M1.5 167h3v-1h-3v1zm6 0h3v-1h-3v1zm6 0h3v-1h-3v1zm6 0h3v-1h-3v1zm6 0h3v-1h-3v1zm6 0h3v-1h-3v1zm6 0h3v-1h-3v1zm6 0h3v-1h-3v1zm6 0h3v-1h-3v1zm6 0h3v-1h-3v1zm6 0h3v-1h-3v1zm6 0h3v-1h-3v1zm6 0h3v-1h-3v1zm6 0h3v-1h-3v1zm6 0h3v-1h-3v1zm6 0h3v-1h-3v1zm6 0h3v-1h-3v1zm6 0h3v-1h-3v1zm6 0h3v-1h-3v1zm6 0h3v-1h-3v1zm6 0h3v-1h-3v1zm6 0h3v-1h-3v1zm6 0h3v-1h-3v1zm6 0h3v-1h-3v1zm6 0h3v-1h-3v1zm6 0h3v-1h-3v1zm6 0h3v-1h-3v1zm6 0h3v-1h-3v1zm6 0h3v-1h-3v1zm6 0h3v-1h-3v1zm6 0h3v-1h-3v1zm-180 66h3v-1h-3v1zm6 0h3v-1h-3v1zm6 0h3v-1h-3v1zm6 0h3v-1h-3v1zm6 0h3v-1h-3v1zm6 0h3v-1h-3v1zm6 0h3v-1h-3v1zm6 0h3v-1h-3v1zm6 0h3v-1h-3v1zm6 0h3v-1h-3v1zm6 0h3v-1h-3v1zm6 0h3v-1h-3v1zm6 0h3v-1h-3v1zm6 0h3v-1h-3v1zm6 0h3v-1h-3v1zm6 0h3v-1h-3v1zm6 0h3v-1h-3v1zm6 0h3v-1h-3v1zm6 0h3v-1h-3v1zm6 0h3v-1h-3v1zm6 0h3v-1h-3v1zm6 0h3v-1h-3v1zm6 0h3v-1h-3v1zm6 0h3v-1h-3v1zm6 0h3v-1h-3v1zm6 0h3v-1h-3v1zm6 0h3v-1h-3v1zm6 0h3v-1h-3v1zm6 0h3v-1h-3v1zm6 0h3v-1h-3v1zm6 0h3v-1h-3v1z" fill="#878A8E" fill-rule="nonzero"/><path d="M12.3 10.2c-.07-.4-.74-1.3-1.5-1.3-.16 0-.27.03-.38.06.72.28 1.28 1 1.45 1.52l.4-.26v-.02h.04m4.9 17.38l-2.7-1.85c-.3-.22-.7-.65-.7-1.43v-6.7l-.2.17-.1.05v6.68c0 .56.3 1.14.7 1.43L17 27.8l.35-.22M5.4 20.85c.05-1.15-.2-2.55-.45-3.9-.25-1.37-.5-2.77-.44-4 .1-.76.2-1.5.5-2.16-.5.8-.8 1.7-.9 2.7 0 2.4 1.1 5.5 1 7.9l-.1 1 .1-.1c.2-.3.4-.8.4-1.5m3.7 6.7c-.4-.9-1.4-1.4-2.6-1.4h-.3c1.2.2 2.1.8 2.5 1.6l.5-.3m9.9-9.9l-.9-1.1.1.7.5.6.4-.3m26.5-5.9l-2.2-1.3.4-.2 2.1 1.2c-.1 0-.1.1-.2.2m.6 16L45 27c-.64-.42-.97-1.2-.97-2.02v-9.36c0-1.3.27-2.18.7-2.8-.24.62-.35 1.37-.35 2.24l.03 9.6c0 1.03.3 1.7 1 2.2l.9.62-.3.23m-7.9-.1l-.1.1h-.2V12.1c0-.75 0-.75-.5-1.1l-.6-.5.4-.22c.4.28.9.67.9.7.2.2.3.3.3.76V27.7v-.04M26.7 8.5c-.23.66-.2 1.28.07 1.78.25.45.7.76 1.23.9-1.68.14-2.4-1.18-1.34-2.67m4.4 13.5c.13-.4.2-.9.2-1.5v-8.1c0-.9-.07-1.1-.4-1.4h.05c.4 0 .7 0 .7.9V20c0 .95-.2 1.57-.6 2.02m.5 5.75c-.2-.73-.9-1.35-2-1.52h.5c1.5.04 1.9.94 2 1.2l.1.1-.4.26m41.3-.2l-.8-.5c-.8-.4-1.2-1.1-1.2-2.2v-7.6c0-.4 0-.4-.2-.5l-1-.7-.4.2.8.6c.5.4.4.4.4 1.1v7.4c0 1 .5 1.7 1 2.1l1 .6.4-.2m-7.8.2V16.3l-.4-.43-.4.25.4.5v11.15h.2l.2-.06h.1m-8.8-.1L53 25.7c-.64-.4-.9-.87-.9-1.7v-6.34l-.26.14-.17.04v6.46c0 .75.34 1.3.92 1.65l3.2 1.87.3-.2M57.9 24v-6.4c0-.32-.13-.43-.38-.57l-1.3-.8v.43l.74.42c.56.3.56.35.56.94l-.03 5.74.4.22m25.4-11.53v-.1c0-.77-.5-1.58-1.2-2l-.6-.3-.4.2.2.12c.9.52 1.4 1.2 1.4 2.3l.4-.24m10.2 15.12l-2.8-1.85c-.4-.22-.8-.65-.8-1.43v-6.7l-.3.17-.1.05v6.6c0 .7.3 1.2.7 1.5l2.8 1.8.4-.2m-11.9 0l-3-1.9c-.8-.5-.9-.9-.9-1.7v-6l-.2.1-.2.1v6c0 .9.3 1.3.8 1.6l3.1 2 .3-.2M95 17.6l-.94-1.1.02.73.5.62.42-.25" fill="#8F98A9"/><path d="M19.86 17.77l-2.5 1.57v-4.1l.2-.14 2.3 2.67zm2.93-.62L19 13l-5.83 3.42v.78l1.2-.67v7.77c0 .45.17.73.45.93l3.1 2 4.37-2.54-.4-.8-2.3 1.2-2.1-1.5c-.3-.2-.3-.4-.3-.7v-2.5l5.4-3.4zM15.6 9.7c-.5-.8-1.84-2.25-4.5-2.25-3.17-.03-5.96 2.47-6.07 5.5-.08 2.4 1.06 5.52.95 7.93-.06.8-.22 1.4-.56 1.85l.34.4L7.7 21.7c.97-.7 1.5-1.6 1.47-3.1-.03-1.88-.9-4.77-.9-6.98 0-1.9.73-3.34 2.38-3.34 1.1 0 2 1.14 2.15 1.78.04.3 0 .45-.3.65l-.77.6v.9l3.87-2.4zm-2.68 15.36l-.33-.68-.9.56c-.7-.78-1.7-1.7-4.2-1.7C5 23.2 1.8 25.27.3 27.06l.3.34c1.97-1.3 4-1.9 5.8-1.9 1.45 0 2.65.7 3.15 1.74l3.34-2.18zm36.83-15.03c-1.1.64-1.46 1.5-1.46 2.86v10.7c0 .6 0 1 .4 1.1l.3.2 1-.6.3.7-3.5 2.1-1.2-.8c-.6-.4-.8-.8-.8-1.7v-9.5c0-1.8.5-2.8 1.3-3.4l.4-.4-3.3-2-1.5.9v13.9c0 1.1-.2 1.3-1.2 1.8l-1.9 1h-.2V11.7c0-.76-.1-.93-.5-1.26l-1-.94-1.5.82v8.02c0 1.4-.3 2.4-1.4 3.1l-2.8 1.77-.3-.4c.8-.7 1-1.6 1-2.7v-8.2c0-1.2-.2-1.6-1.47-1.4-.4.1-1.2.2-1.6.3-1.8.3-2.6-1-1.3-2.7l1.1-1.5.6.5-.44.6c-.6.9-.1 1.3.86 1l1.9-.8c2.6-1 3.6.7 3.7 1.7l3.3-2 2.84 2.2L45 7.6 48 9c.9.52 1.36.3 2-.04l.53-.3.4.7-1.18.7zM32.55 27.2c-.3-.77-1.1-1.58-2.55-1.64-1.37-.03-3.32.5-4.94 1.74l-.3-.4c1.17-1.28 3.9-3.36 6.77-3.4 1.5 0 2.57.52 3.32 1.33l1.26-.7.4.73-3.9 2.35zm25.95-2.23l-.16.03-2.3-1.35c-.38-.22-.46-.47-.46-.98l.03-7.37.2-.06 2.2 1.3c.5.25.6.47.6.95v7.4zm18 .42l-.3-.7-1.02.6-.36-.3c-.4-.2-.48-.5-.48-1.2v-8c0-.7-.13-1-.53-1.3L71.7 13l-3.3 1.9-1.74-1.9-3.5 2.17.46.55 1.2-.72.86 1v11.2h.25l1.84-.84c.67-.28.86-.5.86-1.3v-9.3l1.12-.67 1.34 1c.3.3.4.5.4 1v7.6c0 .8.2 1.3.8 1.6l1.2.7 3-1.8zm-13.84-1.6l-.25-.7-.9.5V16c0-.4-.1-.7-.5-.9L57.3 13l-5.82 3.42v.8l1.2-.7v7.44c0 .67.16.93.58 1.18l3.55 2.1 5.9-3.45zm33.3-6.1l-2.5 1.5v-4.1l.23-.2 2.2 2.6zm2.95-.6L95.2 13l-5.83 3.42v.78l1.2-.67v7.77c0 .45.18.73.46.93l3.1 2 4.37-2.54-.33-.8-2.3 1.2-2.05-1.5c-.3-.2-.3-.4-.3-.7v-2.5l5.45-3.4zm-10.8 6.7l-.2-.7-1 .5V11.8c0-1.74-.8-2.86-2-3.64l-1.2-.8-3.9 2.3.8.32 1.3-.7.8.46c.9.5 1.5 1.52 1.5 2.55v.4l-6.7 3.9v.7l1.2-.6V24c0 .6.2.87.6 1.12l3.4 2.1 5.86-3.42zM84 24.9l-.17.03-1.97-1.3c-.4-.3-.53-.5-.53-1v-7.1l2.45-1.5.2.1V24.9z" fill="#1A171B"/><path d="M16.28 138.8c0 6-3.77 9.33-9.47 9.33-1.9 0-3.7-.05-5.5-.16V130.5c1.4-.08 3.8-.15 6.3-.15 5.1 0 8.7 2.1 8.7 8.45zm-5.23.4c0-2.74-.52-4.77-3.74-4.77-.5 0-.8 0-1.2.05v9.4c.2.04.6.06 1.1.06 2.2 0 3.9-1.48 3.9-4.75zm17.4 8.8v-4.2H23V141h5.16v-3.95H23v-2.47h5.44v-4.1H18.17V148h10.27zm-.84-19.55l-.9-3.2-6.3 1.98.7 2.5 6.6-1.28zm16.1 7.7c0 3.6-2.4 6.68-7.4 6.68-.3 0-.6-.03-.6-.03v5.2h-4.9v-17.55s2.6-.13 5.7-.13c4.7 0 7.3 1.9 7.3 5.82zm-5 .38c0-1.37-.6-2.26-2.3-2.26-.3 0-.6.03-.6.03v4.44s.4.08.9.08c1.4 0 2.2-.8 2.2-2.3zm21.3 4.5v-10.58h-4.8v10.84c0 2.1-.6 3-2.5 3-2 0-2.5-1-2.5-2.9v-11h-4.9v11.2c0 3.7 1.5 6.7 7.2 6.7 4.7 0 7.7-2.3 7.7-7.4zm13.8-6.42v-4.1H61.4v4.2h3.8V148H70v-13.4h3.8zM85.6 148v-4.2h-5.44V141h5.15v-3.95h-5.1v-2.47h5.5v-4.1H75.3V148h10.3zm-.84-19.55l-.9-3.2-6.35 1.98.7 2.5 6.6-1.28zm14.4 13.8c0-5.6-6.76-4.75-6.76-6.96 0-.7.58-1.2 1.93-1.2 1.06 0 2.03.2 3 .5l.4-4.2c-1.04-.2-2.34-.4-3.22-.4-4.6 0-7.3 2.2-7.3 5.7 0 6 6.6 4.5 6.6 7 0 .8-.7 1.2-1.7 1.2-1.5 0-2.8-.4-4-.9l-.4 4.6c1.3.3 2.6.4 4.4.4 4.2 0 7.2-2.6 7.2-6.1zM116.8 148v-4.2h-5.44V141h5.15v-3.95h-5.1v-2.47h5.5v-4.1h-10.3V148h10.3zm-.84-19.55l-.9-3.2-6.35 1.98.7 2.5 6.6-1.28zM128.83 148v-4.32H124v-13.23h-4.84V148h9.67zm16.07-6.97v-10.58h-4.8v10.84c0 2.1-.6 3-2.56 3-2 0-2.57-1-2.57-2.9v-11h-4.84v11.2c0 3.7 1.48 6.7 7.12 6.7 4.7 0 7.65-2.3 7.65-7.4zm13.86 1.22c0-5.6-6.76-4.75-6.76-6.96 0-.7.57-1.2 1.92-1.2 1.07 0 2.03.2 3 .5l.4-4.2c-1.03-.2-2.33-.4-3.22-.4-4.63 0-7.3 2.2-7.3 5.7 0 6 6.55 4.5 6.55 7 0 .8-.76 1.2-1.7 1.2-1.53 0-2.85-.4-4.02-.9l-.42 4.6c1.3.3 2.6.4 4.4.4 4.2 0 7.2-2.6 7.2-6.1z" fill="#FE0304"/><path d="M12.85 91.58l-.65-4.3c-.73.35-1.85.53-2.6.53-2.73 0-3.9-1.6-3.9-4.6 0-2.8 1.43-4.4 3.72-4.4 1 0 1.92.2 2.78.5l.6-4.4c-1.02-.3-2.24-.5-3.38-.5C3.67 74.4.37 78.2.37 84c0 3.53 1.43 8.3 8.32 8.3 1.4 0 2.9-.2 4.1-.67zm17.73.42H25.3l-.88-2.86h-5.46L18.1 92h-4.78l5.6-17.55h5.8L30.57 92zm-7.33-6.66l-.96-3.22c-.3-.86-.5-1.7-.7-2.47h-.1c-.2.78-.4 1.6-.6 2.5l-1 3.2H23zM46.85 92V74.45h-4.6v4.32c0 1.6.06 5.04.2 6.24-.32-1.1-.82-2.4-1.3-3.4l-3.3-7h-6.33V92h4.6v-4.55c0-1.92-.08-5.15-.18-6.2.23 1.03.62 2.1 1.2 3.37l3.4 7.38h6.32zm18-9.2c0 6-3.77 9.33-9.46 9.33-1.9 0-3.8-.05-5.6-.16V74.5c1.4-.08 3.7-.15 6.3-.15 5.1 0 8.7 2.1 8.7 8.45zm-5.23.4c0-2.74-.52-4.77-3.74-4.77-.57 0-.86 0-1.22.05v9.4c.2.04.54.06 1.12.06 2.15 0 3.84-1.48 3.84-4.75zM71.58 92V74.45h-4.83V92h4.83zm18-9.2c0 6-3.77 9.33-9.47 9.33-1.9 0-3.7-.05-5.5-.16V74.5c1.4-.08 3.8-.15 6.3-.15 5.1 0 8.7 2.1 8.7 8.45zm-5.23.4c0-2.74-.52-4.77-3.74-4.77-.5 0-.8 0-1.2.05v9.4c.2.04.6.06 1.1.06 2.2 0 3.9-1.48 3.9-4.75zM106.4 92h-5.28l-.88-2.86h-5.46L93.92 92h-4.8l5.6-17.55h5.8L106.4 92zm-7.33-6.66l-.97-3.22c-.26-.86-.46-1.7-.62-2.47h-.05c-.16.78-.34 1.6-.6 2.5l-.94 3.2H99zM117 78.6h-3.8V92h-4.83V78.6h-3.8v-4.15H117v4.16zm12.93 7.65c0-5.6-6.76-4.75-6.76-6.96 0-.7.57-1.2 1.92-1.2 1 0 2 .2 2.9.5l.4-4.2c-1.1-.2-2.4-.4-3.3-.4-4.6 0-7.3 2.2-7.3 5.7 0 6 6.5 4.5 6.5 7 0 .8-.8 1.2-1.7 1.2-1.5 0-2.9-.4-4-.9l-.5 4.6c1.3.3 2.6.4 4.3.4 4.2 0 7.2-2.6 7.2-6.1zM2.56 64H7.4l6.56-14.28v-3.48H.9v3.8h8.2L2.55 64zm19.08.34c-4.66 0-7.46-1.78-7.46-5.04 0-2.14 1.77-3.75 3.62-4.52-1.75-.96-2.8-2-2.8-4.3 0-2.27 2.15-4.58 6.64-4.58 4.63 0 6.65 2.3 6.65 4.6 0 1.74-1.1 3.4-2.8 4.16 2 .9 3.5 1.95 3.5 4.64 0 3.26-2.8 5.04-7.5 5.04zm.36-11.2c1.15-.64 1.66-1.28 1.66-2.2 0-.72-.46-1.72-2-1.72-1.53 0-2.04.86-2.04 1.68 0 1.17 1 1.75 2.38 2.23zm-.36 8c1.78 0 2.64-1 2.64-2.1s-.82-1.74-3-2.58C19.98 57.14 19 58 19 59.03c0 1.1.86 2.1 2.64 2.1zm15.6 3.2c-4.66 0-7.46-1.78-7.46-5.04 0-2.14 1.77-3.75 3.62-4.52-1.75-.96-2.8-2-2.8-4.3 0-2.27 2.15-4.58 6.64-4.58 4.63 0 6.65 2.3 6.65 4.6 0 1.74-1.1 3.4-2.8 4.16 2 .9 3.5 1.95 3.5 4.64 0 3.26-2.8 5.04-7.5 5.04zm.36-11.2c1.15-.64 1.66-1.28 1.66-2.2 0-.72-.46-1.72-2-1.72-1.53 0-2.04.86-2.04 1.68 0 1.17 1 1.75 2.38 2.23zm-.36 8c1.78 0 2.64-1 2.64-2.1s-.82-1.74-3-2.58c-1.3.68-2.28 1.54-2.28 2.57 0 1.1.86 2.1 2.64 2.1zm8.2 2.86h13.7v-3.7H51.2c.1-.8 1.87-1.94 4.17-3.4 3.4-2.16 3.67-3.92 3.67-5.72 0-3.26-2.28-5.28-6.3-5.28-3.4 0-5.53 1.6-7.2 3.87l3.35 2.45c1-1.44 2.5-2.33 3.7-2.33 1.1 0 1.8.6 1.8 1.6 0 1.7-1.1 2.2-3.9 4-4.7 3-5.1 5.5-5.1 8.1v.4z" fill="#1E0F64"/><path d="M7.13 120.34c4.6 0 7.4-2.57 7.4-6.44 0-3.43-1.86-6-5.9-6-1.77 0-2.94.48-3.42.9l.3-3H13l.22-3.56H1.86l-.72 9.67 3 1c.9-1 2-1.4 2.95-1.4 1.8 0 2.7 1.1 2.7 2.7s-1 2.5-3 2.5c-1.5 0-3.2-.6-4.4-1.4l-2.3 3.2c1.7 1.3 3.9 2 7 2zm9.5-.34l6.53-13.97h-8.18v-3.8h13.05v3.5L21.48 120h-4.85zm13.03 0l6.53-13.97H28v-3.8h13.06v3.5L34.5 120h-4.84z" fill="#FE0304"/><path fill="#FFF" d="M51.45 268.96h1.43l1.33-2.4v-2.36H51v2.8h1.23"/></g></svg>