<?xml version="1.0" encoding="UTF-8"?>
<svg width="112px" height="20px" viewBox="0 0 112 20" version="1.1" xmlns="http://www.w3.org/2000/svg" xmlns:xlink="http://www.w3.org/1999/xlink">
    <!-- Generator: Sketch 43.1 (39012) - http://www.bohemiancoding.com/sketch -->
    <title>XS/Gratuit/Logo</title>
    <desc>Created with Sketch.</desc>
    <defs>
        <linearGradient x1="50%" y1="100%" x2="50%" y2="0%" id="linearGradient-1">
            <stop stop-color="#8F98A9" offset="0%"></stop>
            <stop stop-color="#BDC6D7" offset="100%"></stop>
        </linearGradient>
        <path d="M93.9775117,15.366639 C92.9181486,15.366639 92.0597197,16.2309512 92.0597197,17.2946098 C92.0597197,18.336039 92.964518,19.2223415 94.0020042,19.2223415 C95.0368747,19.2223415 95.8953036,18.336039 95.8953036,17.2726195 C95.8953036,16.208961 95.0587516,15.366639 93.9775117,15.366639" id="path-2"></path>
        <filter x="-39.1%" y="-38.9%" width="178.2%" height="177.8%" filterUnits="objectBoundingBox" id="filter-3">
            <feGaussianBlur stdDeviation="1.5" in="SourceAlpha" result="shadowBlurInner1"></feGaussianBlur>
            <feOffset dx="0" dy="0" in="shadowBlurInner1" result="shadowOffsetInner1"></feOffset>
            <feComposite in="shadowOffsetInner1" in2="SourceAlpha" operator="arithmetic" k2="-1" k3="1" result="shadowInnerInner1"></feComposite>
            <feColorMatrix values="0 0 0 0 0   0 0 0 0 0   0 0 0 0 0  0 0 0 0.3 0" type="matrix" in="shadowInnerInner1"></feColorMatrix>
        </filter>
        <linearGradient x1="50%" y1="0%" x2="50%" y2="99.5615434%" id="linearGradient-4">
            <stop stop-color="#BDC6D7" offset="0%"></stop>
            <stop stop-color="#8F98A9" offset="100%"></stop>
        </linearGradient>
        <path d="M108.131125,8.6318878 L108.063355,8.6318878 L108.063355,6.85330732 L101.718115,6.85330732 L101.718115,6.17615122 C101.718115,5.87235122 101.547618,4.06126341 103.012416,3.75411707 C103.6818,3.61333171 104.250599,3.98238537 104.603244,4.2737561 L107.158556,2.62233659 C106.131295,1.46235122 104.609902,1.11743902 103.30062,1.19583902 C102.372756,1.25296585 98.6603482,1.80726341 98.6603482,5.9211122 L98.6603482,6.85330732 L96.8994989,6.85330732 L96.8994989,8.76000488 L98.6603482,8.76000488 L98.6603482,19.0994829 L101.718115,19.0994829 L101.718115,8.76000488 L105.002259,8.76000488 L105.007728,19.0994829 L108.063355,19.0994829 L108.063355,12.5602537 C108.115431,10.5318927 108.743677,9.25574146 111.86969,9.14985366 L111.967423,6.4082439 C109.823015,6.54663902 108.70896,7.68965366 108.131125,8.6318878" id="path-5"></path>
        <filter x="-10.0%" y="-8.4%" width="119.9%" height="116.7%" filterUnits="objectBoundingBox" id="filter-6">
            <feGaussianBlur stdDeviation="1.5" in="SourceAlpha" result="shadowBlurInner1"></feGaussianBlur>
            <feOffset dx="0" dy="0" in="shadowBlurInner1" result="shadowOffsetInner1"></feOffset>
            <feComposite in="shadowOffsetInner1" in2="SourceAlpha" operator="arithmetic" k2="-1" k3="1" result="shadowInnerInner1"></feComposite>
            <feColorMatrix values="0 0 0 0 0   0 0 0 0 0   0 0 0 0 0  0 0 0 0.3 0" type="matrix" in="shadowInnerInner1"></feColorMatrix>
        </filter>
    </defs>
    <g id="templates---XL-L-M-S-XS" stroke="none" stroke-width="1" fill="none" fill-rule="evenodd">
        <g id="XL-1024--abonnement" transform="translate(-786.000000, -566.000000)">
            <g id="offre-abonnement" transform="translate(341.000000, 200.000000)">
                <g id="XS/Gratuit/Logo" transform="translate(445.000000, 366.000000)">
                    <path d="M11.1160594,3.42832683 C11.039966,3.0693122 10.4247983,2.24587317 9.73591507,2.24587317 C9.58158811,2.24587317 9.47981316,2.2716878 9.37827601,2.29869756 C10.0421911,2.55564878 10.5532059,3.22180976 10.7075329,3.6857561 L11.0903779,3.45461951 L11.0903779,3.42832683 L11.1160594,3.42832683" id="Fill-1" fill="#8F98A9" fill-rule="evenodd"></path>
                    <path d="M15.6100892,19.3607366 L13.0533503,17.6643805 C12.7458854,17.4602537 12.3884841,17.0747073 12.3884841,16.3552439 L12.3884841,10.211839 L12.1323822,10.3669659 L12.0306072,10.4181171 L12.0306072,16.5342732 C12.0306072,17.0486537 12.3109639,17.5881317 12.6938089,17.8450829 L15.2781316,19.5665366 L15.6100892,19.3607366" id="Fill-2" fill="#8F98A9" fill-rule="evenodd"></path>
                    <path d="M4.72516348,13.1934293 C4.77605096,12.1398098 4.54753291,10.8548146 4.31711253,9.62049268 C4.08716773,8.36202927 3.88100212,7.07607805 3.90692144,5.94716585 C3.93331635,5.25399512 4.06101062,4.58568293 4.34184289,3.969 C3.85627176,4.71356098 3.55023355,5.56090244 3.52383864,6.46082927 C3.44726964,8.64503415 4.49545648,11.4965951 4.39249257,13.7080488 C4.36728662,14.0417268 4.34184289,14.3756439 4.31711253,14.6070195 L4.36728662,14.5553902 C4.57273885,14.2719073 4.70043312,13.8359268 4.72516348,13.1934293" id="Fill-3" fill="#8F98A9" fill-rule="evenodd"></path>
                    <path d="M8.09919321,19.3103024 C7.71587261,18.512678 6.79704459,18.0255463 5.72293843,18.0255463 C5.61997452,18.0501659 5.51772399,18.0501659 5.41594904,18.0501659 C6.46413588,18.2311073 7.35799575,18.8212585 7.69114225,19.5665366 L8.09919321,19.3103024" id="Fill-4" fill="#8F98A9" fill-rule="evenodd"></path>
                    <polyline id="Fill-5" fill="#8F98A9" fill-rule="evenodd" points="17.1661996 10.2383707 16.2961189 9.23638049 16.3225138 9.90397561 16.78169 10.4699854 17.1661996 10.2383707"></polyline>
                    <path d="M41.4376221,4.86820976 L39.3921359,3.65898537 L39.6991253,3.45461951 L41.6675669,4.61149756 C41.5907601,4.68822439 41.5141911,4.76495122 41.4376221,4.86820976" id="Fill-6" fill="#8F98A9" fill-rule="evenodd"></path>
                    <path d="M41.9486369,19.5158634 L41.0540637,18.8984634 C40.4657665,18.4875805 40.1594904,17.7932146 40.1594904,17.022839 L40.1594904,8.43923415 C40.1594904,7.25678049 40.4155924,6.43429756 40.8236433,5.86996098 C40.5939363,6.43429756 40.491448,7.12842439 40.491448,7.92557073 L40.5166539,16.7135415 C40.5166539,17.6643805 40.7984374,18.2815415 41.4633036,18.7442927 L42.2815456,19.3103024 L41.9486369,19.5158634" id="Fill-7" fill="#8F98A9" fill-rule="evenodd"></path>
                    <path d="M34.689087,19.4377024 C34.689087,19.4377024 34.6122803,19.4895707 34.5616306,19.5158634 L34.3568917,19.5158634 L34.3568917,5.17679024 C34.3568917,4.48314146 34.306242,4.48314146 33.8974777,4.1738439 L33.3091805,3.71157073 L33.6934522,3.50624878 C33.999966,3.76248293 34.4603312,4.12317073 34.4603312,4.14898537 C34.6391507,4.32849268 34.689087,4.43079512 34.689087,4.8421561 L34.689087,19.463039 L34.689087,19.4377024" id="Fill-8" fill="#8F98A9" fill-rule="evenodd"></path>
                    <path d="M24.2842633,1.88685854 C24.0802378,2.47820488 24.1056815,3.04301951 24.3610701,3.50624878 C24.5922038,3.91641463 25.0002548,4.19989756 25.4872527,4.32849268 C23.9779873,4.45660976 23.31431,3.24905854 24.2842633,1.88685854" id="Fill-9" fill="#8F98A9" fill-rule="evenodd"></path>
                    <path d="M28.2729851,14.2472878 C28.4002038,13.8359268 28.4522803,13.3726976 28.4522803,12.8848488 L28.4522803,5.40673171 C28.4522803,4.50728293 28.4002038,4.40593659 28.0934522,4.12317073 L28.1450531,4.12317073 C28.5794989,4.0454878 28.8094437,4.12317073 28.8094437,4.89259024 L28.8094437,12.396522 C28.8094437,13.2706341 28.6572569,13.8359268 28.2729851,14.2472878" id="Fill-10" fill="#8F98A9" fill-rule="evenodd"></path>
                    <path d="M28.7323992,19.5158634 C28.5293248,18.8473122 27.9146327,18.2815415 26.8410021,18.1271317 C26.9953291,18.1025122 27.1482293,18.1025122 27.3023185,18.1025122 C28.6301486,18.1271317 29.0144204,18.9493756 29.0909894,19.2070439 L29.1164331,19.2832927 L28.7323992,19.5158634" id="Fill-11" fill="#8F98A9" fill-rule="evenodd"></path>
                    <path d="M66.5650955,19.335639 L65.7991677,18.8736049 C65.10862,18.4608098 64.7502675,17.8199854 64.7502675,16.8428537 L64.7502675,9.87863902 C64.7502675,9.4677561 64.7255372,9.49380976 64.5712102,9.36497561 C64.5712102,9.36497561 64.0345138,8.9278 63.6766369,8.64503415 L63.2937919,8.85179024 L64.0345138,9.41612683 C64.4439915,9.72399024 64.393104,9.74980488 64.393104,10.3669659 L64.393104,17.1251415 C64.393104,18.0501659 64.775949,18.6924244 65.3126454,19.002439 L66.2329002,19.5158634 L66.5650955,19.335639" id="Fill-12" fill="#8F98A9" fill-rule="evenodd"></path>
                    <path d="M59.406845,19.463039 L59.406845,9.00452683 L59.0748875,8.61993659 L58.6661231,8.85179024 L59.0489682,9.28777073 L59.0489682,19.5158634 L59.2551338,19.5158634 C59.3053079,19.4895707 59.3818769,19.463039 59.3818769,19.463039 L59.406845,19.463039" id="Fill-13" fill="#8F98A9" fill-rule="evenodd"></path>
                    <path d="M51.3090786,19.3872683 L48.3692569,17.6129902 C47.7809597,17.2537366 47.551966,16.817039 47.551966,16.0459463 L47.551966,10.2383707 L47.2963397,10.3669659 L47.1926624,10.4181171 L47.1926624,16.3287122 C47.1926624,17.022839 47.4989384,17.5350683 48.0370616,17.8450829 L50.9756943,19.5665366 L51.3090786,19.3872683" id="Fill-14" fill="#8F98A9" fill-rule="evenodd"></path>
                    <path d="M52.8944374,16.0978146 L52.8944374,10.2383707 C52.8944374,9.92979024 52.7933758,9.82605366 52.5615287,9.69817561 L51.359966,8.97919024 L51.359966,9.36497561 L52.0507516,9.74980488 C52.5615287,10.0320927 52.5615287,10.083961 52.5615287,10.6243951 L52.5370361,15.8917756 L52.8944374,16.0978146" id="Fill-15" fill="#8F98A9" fill-rule="evenodd"></path>
                    <path d="M76.1973333,5.51022927 L76.1973333,5.43326341 C76.1973333,4.71356098 75.7628875,3.969 75.0968323,3.58297561 C74.8416815,3.42832683 74.6126879,3.29997073 74.6126879,3.29997073 L74.3064119,3.50624878 L74.4840425,3.60759512 C75.3529342,4.0973561 75.8406454,4.71356098 75.8406454,5.71483415 L76.1973333,5.51022927" id="Fill-16" fill="#8F98A9" fill-rule="evenodd"></path>
                    <path d="M85.5056985,19.3607366 L82.9237537,17.6643805 C82.6179533,17.4602537 82.2588875,17.0747073 82.2588875,16.3552439 L82.2588875,10.211839 L82.0030234,10.3669659 L81.9002972,10.4181171 L81.9002972,16.4561122 C81.9002972,17.1251415 82.1571125,17.5881317 82.590845,17.8708976 L85.1471083,19.5665366 L85.5056985,19.3607366" id="Fill-17" fill="#8F98A9" fill-rule="evenodd"></path>
                    <path d="M74.6126879,19.3607366 L71.850259,17.6129902 C71.1875329,17.2033024 71.0586497,16.817039 71.0586497,16.0703268 L71.0586497,10.5469512 L70.8541486,10.6504488 L70.7007728,10.7266976 L70.7007728,16.199878 C70.7007728,17.0747073 70.9827941,17.4602537 71.4165265,17.7423024 L74.2793036,19.5665366 L74.6126879,19.3607366" id="Fill-18" fill="#8F98A9" fill-rule="evenodd"></path>
                    <polyline id="Fill-19" fill="#8F98A9" fill-rule="evenodd" points="86.9081953 10.2383707 86.0393036 9.23638049 86.0652229 9.90397561 86.5239236 10.4699854 86.9081953 10.2383707"></polyline>
                    <path d="M18.0346157,10.3669659 L15.7339788,11.8058927 L15.7339788,8.05344878 L15.9387176,7.92557073 L18.0346157,10.3669659 L18.0346157,10.3669659 Z M20.7190488,9.80167317 L17.2934183,5.99831707 L11.9495202,9.1326439 L11.9495202,9.85210732 L13.0495456,9.23638049 L13.0495456,16.3552439 C13.0495456,16.7654098 13.2029214,17.022839 13.45831,17.2033024 L16.2961189,19.0528732 L20.3102845,16.7135415 L19.9780892,15.994078 L17.8814777,17.1251415 L15.9898429,15.8136146 C15.7596603,15.6611171 15.7339788,15.5062293 15.7339788,15.1720732 L15.7339788,12.8590341 L20.7190488,9.80167317 L20.7190488,9.80167317 Z M14.1331635,2.96509756 C13.6725605,2.24587317 12.4457919,0.910204878 10.0169851,0.910204878 C7.10332059,0.884868293 4.54753291,3.17161463 4.44480679,5.94716585 C4.36728662,8.15718537 5.41594904,11.0094634 5.31298514,13.2194829 C5.26281104,13.965478 5.10848408,14.5049561 4.80268365,14.9148829 L5.10848408,15.2760488 L6.89858174,13.965478 C7.76818684,13.3210683 8.25352017,12.5251171 8.22760085,11.1382976 C8.20215711,9.41612683 7.40935881,6.76940976 7.40935881,4.74009268 C7.40935881,2.99162927 8.07446285,1.68105854 9.58277707,1.68105854 C10.6055202,1.68105854 11.4235244,2.73443902 11.5505053,3.32578537 C11.6028195,3.60759512 11.5505053,3.73666829 11.2951168,3.91641463 L10.5800764,4.40593659 L10.5800764,5.20164878 L14.1331635,2.96509756 L14.1331635,2.96509756 Z M11.6772484,17.0498488 L11.3712102,16.4326878 L10.5800764,16.9458732 C9.99273036,16.2252146 9.04608068,15.3776341 6.79704459,15.3776341 C4.41936306,15.3525366 1.50427176,17.2537366 0.175252654,18.8984634 L0.405673036,19.2070439 C2.21978769,17.9982976 4.08716773,17.4602537 5.72293843,17.4602537 C7.05243312,17.4602537 8.15126964,18.1025122 8.61092144,19.0528732 L11.6772484,17.0498488 L11.6772484,17.0498488 Z" id="Fill-21" fill="#1A171B" fill-rule="evenodd"></path>
                    <path d="M45.4265817,3.27367805 C44.4278556,3.86478537 44.0956603,4.66240976 44.0956603,5.89577561 L44.0956603,15.7366488 C44.0956603,16.3552439 44.1729427,16.6360976 44.5049002,16.817039 L44.8378089,16.9975024 L45.7575881,16.4561122 L46.0650531,17.0747073 L42.8688917,19.002439 L41.770293,18.2559659 C41.2830573,17.9222878 41.0778429,17.5106878 41.0778429,16.7135415 L41.0778429,7.92557073 C41.0778429,6.28156098 41.5907601,5.40673171 42.3065138,4.86820976 L42.7157537,4.55986829 L39.6991253,2.78559024 L38.3441868,3.60759512 L38.3441868,16.405678 C38.3441868,17.4846341 38.190811,17.6392829 37.243448,18.1271317 C37.243448,18.1271317 36.5041529,18.4875805 35.4833121,19.0270585 L35.2778599,19.0270585 L35.2778599,4.8421561 C35.2778599,4.14898537 35.2001019,3.99385854 34.8167813,3.6857561 L33.7441019,2.8126 L32.4398132,3.55668293 L32.4398132,10.9074 C32.4398132,12.191439 32.2357877,13.1164634 31.2130446,13.7582439 L28.6572569,15.3776341 L28.4002038,14.9416537 C29.1937155,14.3237756 29.3720594,13.4491854 29.3720594,12.4218585 L29.3720594,4.91888293 C29.3720594,3.81363415 29.2201104,3.37717561 28.0682463,3.58297561 C27.634276,3.65898537 26.9694098,3.76248293 26.5604076,3.81363415 C24.8725605,4.0454878 24.1560934,2.83745854 25.3070064,1.32156585 C25.3070064,1.32156585 25.5887898,0.936019512 26.3040679,0.0100390244 L26.8678726,0.396541463 L26.4576815,0.987409756 C25.9212229,1.75945854 26.3556688,2.17034146 27.2255117,1.86080488 C27.634276,1.70663415 28.4261231,1.39924878 28.9887389,1.16667805 C31.4163567,0.216556098 32.3118811,1.78407805 32.4398132,2.70958049 L35.4569172,0.884868293 L38.0624034,2.88860976 L41.2830573,0.884868293 L43.763465,2.29869756 C44.6066752,2.78559024 45.0161529,2.58050732 45.6042123,2.2716878 L46.090259,2.01521463 L46.4733418,2.65795122 L45.4265817,3.27367805 L45.4265817,3.27367805 Z M29.6536051,19.0270585 C29.3979788,18.3064 28.6572569,17.561839 27.3272866,17.5106878 C26.0736476,17.4846341 24.2842633,17.973678 22.8028195,19.1047415 L22.5205605,18.7442927 C23.5951423,17.561839 26.1002803,15.6611171 28.7323992,15.6343463 C30.1142081,15.6343463 31.0853503,16.0978146 31.7754225,16.8428537 L32.9265732,16.199878 L33.2590064,16.8686683 L29.6536051,19.0270585 L29.6536051,19.0270585 Z" id="Fill-22" fill="#1A171B" fill-rule="evenodd"></path>
                    <path d="M53.4563397,16.9716878 L53.3036773,16.9975024 L51.2061146,15.7631805 C50.8496645,15.5576195 50.7711932,15.3264829 50.7711932,14.8634927 L50.7980637,8.10531707 L50.9507261,8.05344878 L52.9710064,9.23638049 C53.3790573,9.4677561 53.4563397,9.6735561 53.4563397,10.1095366 L53.4563397,16.9716878 L53.4563397,16.9716878 Z M69.9400764,17.3565171 L69.6846879,16.7654098 L68.7378004,17.3060829 L68.4072696,17.0998049 C68.0493928,16.8942439 67.9721104,16.6360976 67.9721104,16.0201317 L67.9721104,8.64503415 C67.9721104,8.05344878 67.8446539,7.79745366 67.4855881,7.54002439 L65.5169087,6.04922927 L62.4748365,7.79745366 L60.8647473,6.04922927 L57.64338,8.02906829 L58.0785393,8.54129756 L59.177138,7.87513659 L59.9694607,8.77362927 L59.9694607,19.002439 L60.1741996,19.002439 C61.4530446,18.4349951 61.8615711,18.2559659 61.8615711,18.2559659 C62.4748365,17.9982976 62.6546072,17.7932146 62.6546072,17.0747073 C62.6546072,17.0998049 62.6546072,16.3796244 62.6546072,8.54129756 L63.7037452,7.92557073 L64.9305138,8.90246341 C65.261758,9.1845122 65.3126454,9.41612683 65.3126454,9.85210732 L65.3385648,16.8428537 C65.3385648,17.6129902 65.5687473,18.0501659 66.0792866,18.3587463 L67.1538684,19.002439 L69.9400764,17.3565171 L69.9400764,17.3565171 Z M57.2657665,15.8917756 L57.0353461,15.3264829 L56.1407728,15.7885171 L56.1407728,8.82478049 C56.1407728,8.46648293 56.0140297,8.183 55.6561529,7.97600488 L52.3570276,5.99831707 L47.0138429,9.1326439 L47.0138429,9.87863902 L48.1143439,9.23638049 L48.1143439,16.0459463 C48.1143439,16.6616732 48.266293,16.8942439 48.6512781,17.1251415 L51.8973758,19.0528732 L57.2657665,15.8917756 L57.2657665,15.8917756 Z" id="Fill-23" fill="#1A171B" fill-rule="evenodd"></path>
                    <path d="M87.7778004,10.3669659 L85.4766879,11.8058927 L85.4766879,8.05344878 L85.7073461,7.92557073 L87.7778004,10.3669659 L87.7778004,10.3669659 Z M90.4872017,9.80167317 L87.0356518,5.99831707 L81.6931805,9.1326439 L81.6931805,9.85210732 L82.7922548,9.23638049 L82.7922548,16.3552439 C82.7922548,16.7654098 82.9453928,17.022839 83.2010191,17.2033024 L86.0393036,19.0528732 L90.0520425,16.7135415 L89.7464798,15.994078 L87.6496306,17.1251415 L85.7575202,15.8136146 C85.5014183,15.6343463 85.4766879,15.5062293 85.4766879,15.1720732 L85.4766879,12.8590341 L90.4872017,9.80167317 L90.4872017,9.80167317 Z M80.5429809,15.9178293 L80.3137495,15.3264829 L79.3927813,15.8136146 L79.3927813,4.91888293 C79.3927813,3.32578537 78.677741,2.29869756 77.5018599,1.57827805 L76.3518981,0.858336585 L72.746259,2.96509756 L73.4620127,3.29997073 L74.6393206,2.65795122 L75.4042972,3.09417073 C76.2230149,3.55668293 76.759949,4.48314146 76.759949,5.43326341 L76.759949,5.84342927 L70.5735541,9.44074634 L70.5735541,10.1353512 L71.6212654,9.57005854 L71.6212654,16.0978146 C71.6212654,16.6616732 71.7744034,16.8942439 72.1322803,17.1251415 L75.1997962,19.0528732 L80.5429809,15.9178293 L80.5429809,15.9178293 Z M76.759949,16.9716878 L76.6065732,16.9975024 L74.7910318,15.8136146 C74.4343439,15.5831951 74.3064119,15.4027317 74.3064119,14.9416537 L74.3064119,8.3888 L76.5808917,6.99935122 L76.759949,7.10260976 L76.759949,16.9716878 L76.759949,16.9716878 Z" id="Fill-24" fill="#1A171B" fill-rule="evenodd"></path>
                    <g id="Fill-25">
                        <use fill="url(#linearGradient-1)" fill-rule="evenodd" xlink:href="#path-2"></use>
                        <use fill="black" fill-opacity="1" filter="url(#filter-3)" xlink:href="#path-2"></use>
                    </g>
                    <g id="Fill-26">
                        <use fill="url(#linearGradient-4)" fill-rule="evenodd" xlink:href="#path-5"></use>
                        <use fill="black" fill-opacity="1" filter="url(#filter-6)" xlink:href="#path-5"></use>
                    </g>
                </g>
            </g>
        </g>
    </g>
</svg>