<?xml version="1.0" encoding="UTF-8"?>
<svg width="27px" height="27px" viewBox="0 0 27 27" version="1.1" xmlns="http://www.w3.org/2000/svg" xmlns:xlink="http://www.w3.org/1999/xlink">
    <!-- Generator: Sketch 43 (38999) - http://www.bohemiancoding.com/sketch -->
    <title>ic-calendrier</title>
    <desc>Created with Sketch.</desc>
    <defs></defs>
    <g id="Page-1" stroke="none" stroke-width="1" fill="none" fill-rule="evenodd">
        <g id="XL-autour-de-l'election" transform="translate(-130.000000, -538.000000)">
            <g id="carte-4" transform="translate(96.000000, 201.000000)">
                <g id="content" transform="translate(24.000000, 70.000000)">
                    <g id="PICTO" transform="translate(5.000000, 15.000000)">
                        <g id="ic-calendrier" transform="translate(5.000000, 252.000000)">
                            <g id="2" opacity="0.354361007" transform="translate(4.000000, 14.000000)" fill="#190A52">
                                <rect id="Rectangle-2" x="0" y="0" width="4" height="4"></rect>
                                <rect id="Rectangle-2" x="10" y="0" width="4" height="4"></rect>
                                <rect id="Rectangle-2" x="15" y="0" width="4" height="4"></rect>
                                <rect id="Rectangle-2" x="0" y="5" width="4" height="4"></rect>
                                <rect id="Rectangle-2" x="5" y="5" width="4" height="4"></rect>
                                <rect id="Rectangle-2" x="10" y="5" width="4" height="4"></rect>
                                <rect id="Rectangle-2" x="15" y="5" width="4" height="4"></rect>
                            </g>
                            <g id="1" opacity="0.8">
                                <rect id="Rectangle-7" stroke="#190A52" stroke-width="1.5" x="0.75" y="3.75" width="25.5" height="22.5" rx="3"></rect>
                                <rect id="Rectangle-8" fill="#190A52" x="6" y="0" width="2.5" height="7" rx="1.25"></rect>
                                <path d="M26,10.75 L2,10.75" id="Line" stroke="#190A52" stroke-width="1.5" stroke-linecap="square"></path>
                                <rect id="Rectangle-8" fill="#190A52" x="18" y="0" width="2.5" height="7" rx="1.25"></rect>
                            </g>
                        </g>
                    </g>
                </g>
            </g>
        </g>
    </g>
</svg>