<?xml version="1.0" encoding="UTF-8"?>
<svg width="230px" height="34px" viewBox="0 0 230 34" version="1.1" xmlns="http://www.w3.org/2000/svg" xmlns:xlink="http://www.w3.org/1999/xlink">
    <!-- Generator: Sketch 42 (36781) - http://www.bohemiancoding.com/sketch -->
    <title>presidentielle 2017</title>
    <desc>Created with Sketch.</desc>
    <defs></defs>
    <g id="Page-1" stroke="none" stroke-width="1" fill="none" fill-rule="evenodd" opacity="0.989447295">
        <g id="XL-participation-20h" transform="translate(-100.000000, -150.000000)">
            <g id="presidentielle-2017" transform="translate(100.000000, 150.000000)">
                <g id="marqueur-presidentielle">
                    <path d="M3.27018787,14.9243863 L3.27018787,22.4431111 L0,22.4431111 L0,3.1657789 L7.16058379,3.1657789 C10.8254495,3.1657789 13.3062817,5.65317661 13.3062817,9.04508258 C13.3062817,12.4369885 10.8818321,14.9243863 7.16058379,14.9243863 L3.27018787,14.9243863 Z M6.65314084,12.0412662 C8.73929518,12.0412662 9.97971127,10.9106309 9.97971127,9.10161434 C9.97971127,7.23606606 8.73929518,6.10543074 6.65314084,6.10543074 L3.27018787,6.10543074 L3.27018787,12.0977979 L6.65314084,12.0977979 L6.65314084,12.0412662 Z" id="Shape" fill="#FAFBFC"></path>
                    <path d="M23.4551406,12.323925 C23.1168453,12.2673932 22.7221675,12.2673932 22.4402547,12.2673932 C20.0158051,12.2673932 18.8881541,13.6806874 18.8881541,16.1680851 L18.8881541,22.4996429 L15.7307313,22.4996429 L15.7307313,9.15814611 L18.775389,9.15814611 L18.775389,11.3063532 C19.395597,9.8365273 20.8615433,9.04508258 22.6094024,9.04508258 C23.0040802,9.04508258 23.3423755,9.10161434 23.4551406,9.10161434 L23.4551406,12.323925 L23.4551406,12.323925 Z" id="Shape" fill="#FAFBFC"></path>
                    <path d="M37.7199256,18.6554828 C36.9869525,20.9732852 34.9007982,22.8388335 31.7433754,22.8388335 C28.1348922,22.8388335 24.9774694,20.2383723 24.9774694,15.715831 C24.9774694,11.5324803 28.0785097,8.76242375 31.4050801,8.76242375 C35.4646237,8.76242375 37.8890733,11.4759485 37.8890733,15.6592992 C37.8890733,16.1680851 37.8326907,16.6203392 37.8326907,16.676871 L28.1912748,16.676871 C28.2476573,18.7120146 29.8263687,20.1253087 31.7997579,20.1253087 C33.7167646,20.1253087 34.675268,19.1077369 35.1263284,17.8075063 L37.7199256,18.6554828 Z M34.675268,14.3590686 C34.6188854,12.8327109 33.6039995,11.4194168 31.4050801,11.4194168 C29.4316909,11.4194168 28.3040399,12.9457744 28.1912748,14.3590686 L34.675268,14.3590686 Z M32.5891136,7.51872489 L29.9955163,7.51872489 L32.419966,3.5049695 L36.1412142,3.5049695 L32.5891136,7.51872489 Z" id="Shape" fill="#FAFBFC"></path>
                    <path d="M42.4560598,18.0901652 C42.5688249,19.2773322 43.4709457,20.3514358 45.1624222,20.3514358 C46.4592208,20.3514358 47.1358114,19.6165228 47.1358114,18.8250781 C47.1358114,18.0901652 46.6283685,17.5813793 45.6134826,17.3552522 L43.6400933,16.9029981 C41.3284088,16.3942122 40.0879927,14.8678545 40.0879927,13.058838 C40.0879927,10.7410356 42.2305296,8.76242375 44.936892,8.76242375 C48.6017577,8.76242375 49.8421738,11.1367579 50.067704,12.4369885 L47.4177242,13.1719015 C47.3049591,12.4369885 46.7411336,11.1932897 44.9932745,11.1932897 C43.8656235,11.1932897 43.0762678,11.9282026 43.0762678,12.7196474 C43.0762678,13.4545603 43.5837108,13.9633462 44.429449,14.1329415 L46.4592208,14.5286639 C48.940053,15.0939816 50.2368516,16.6203392 50.2368516,18.5424193 C50.2368516,20.5775629 48.6017577,22.7823017 45.2188047,22.7823017 C41.3847914,22.7823017 39.9188451,20.294904 39.7496974,18.7685463 L42.4560598,18.0901652 Z" id="Shape" fill="#FAFBFC"></path>
                    <path d="M54.8602207,2.48739771 C55.9878717,2.48739771 56.946375,3.39190597 56.946375,4.57907305 C56.946375,5.70970838 56.0442542,6.61421663 54.8602207,6.61421663 C53.7325697,6.61421663 52.8304489,5.70970838 52.8304489,4.57907305 C52.8304489,3.39190597 53.7889523,2.48739771 54.8602207,2.48739771 Z M53.3378919,22.4431111 L53.3378919,9.15814611 L56.4389321,9.15814611 L56.4389321,22.3865794 L53.3378919,22.3865794 L53.3378919,22.4431111 Z" id="Shape" fill="#FAFBFC"></path>
                    <path d="M72.7898714,20.0122452 C72.7898714,21.1994123 72.9026365,22.2169841 72.9026365,22.4431111 L69.9143614,22.4431111 C69.8579789,22.1604523 69.8015963,21.2559441 69.8015963,20.7471582 C69.1813883,21.8777935 67.7718245,22.7823017 65.9112004,22.7823017 C62.1335696,22.7823017 59.5399723,19.7861181 59.5399723,15.7723627 C59.5399723,11.9847344 62.1335696,8.81895551 65.8548178,8.81895551 C68.1665024,8.81895551 69.3505359,9.89305907 69.7452138,10.7410356 L69.7452138,2.71352477 L72.7898714,2.71352477 L72.7898714,20.0122452 Z M66.2494957,20.0122452 C68.33565,20.0122452 69.7452138,18.3162922 69.7452138,15.7723627 C69.7452138,13.2284333 68.33565,11.6455438 66.2494957,11.6455438 C64.1633414,11.6455438 62.6410125,13.2284333 62.6410125,15.7723627 C62.6410125,18.3162922 64.1069588,20.0122452 66.2494957,20.0122452 Z" id="Shape" fill="#FAFBFC"></path>
                    <path d="M88.6333679,18.6554828 C87.9003947,20.9732852 85.8142404,22.8388335 82.6568176,22.8388335 C79.0483344,22.8388335 75.8909117,20.2383723 75.8909117,15.715831 C75.8909117,11.5324803 78.9919519,8.76242375 82.3185223,8.76242375 C86.3780659,8.76242375 88.8025155,11.4759485 88.8025155,15.6592992 C88.8025155,16.1680851 88.746133,16.6203392 88.746133,16.676871 L79.104717,16.676871 C79.1610995,18.7120146 80.7398109,20.1253087 82.7132002,20.1253087 C84.6302068,20.1253087 85.5887102,19.1077369 86.0397706,17.8075063 L88.6333679,18.6554828 Z M85.5887102,14.3590686 C85.5323276,12.8327109 84.5174417,11.4194168 82.3185223,11.4194168 C80.3451331,11.4194168 79.2174821,12.9457744 79.104717,14.3590686 L85.5887102,14.3590686 Z" id="Shape" fill="#FAFBFC"></path>
                    <path d="M94.9482134,22.4431111 L91.7907906,22.4431111 L91.7907906,9.15814611 L94.8354483,9.15814611 L94.8354483,10.9106309 C95.6811866,9.38427317 97.2598979,8.76242375 98.7258442,8.76242375 C101.93965,8.76242375 103.518361,11.0802262 103.518361,14.019878 L103.518361,22.3865794 L100.360938,22.3865794 L100.360938,14.5851957 C100.360938,12.9457744 99.627965,11.6455438 97.6545758,11.6455438 C95.8503342,11.6455438 94.8918309,13.058838 94.8918309,14.754791 L94.8918309,22.4431111 L94.9482134,22.4431111 Z" id="Shape" fill="#FAFBFC"></path>
                    <path d="M111.411918,9.15814611 L114.174663,9.15814611 L114.174663,11.9847344 L111.411918,11.9847344 L111.411918,18.1466969 C111.411918,19.333864 111.919361,19.7861181 113.103394,19.7861181 C113.554455,19.7861181 114.061898,19.7295864 114.174663,19.6730546 L114.174663,22.2735158 C114.005515,22.3300476 113.385307,22.5561747 112.257656,22.5561747 C109.833206,22.5561747 108.310878,21.0863488 108.310878,18.598951 L108.310878,11.9847344 L105.886428,11.9847344 L105.886428,9.15814611 L106.563019,9.15814611 C107.972582,9.15814611 108.59279,8.25363785 108.59279,7.06647076 L108.59279,5.14439072 L111.4683,5.14439072 L111.4683,9.15814611 L111.411918,9.15814611 Z" id="Shape" fill="#FAFBFC"></path>
                    <path d="M118.96718,2.48739771 C120.09483,2.48739771 121.053334,3.39190597 121.053334,4.57907305 C121.053334,5.70970838 120.151213,6.61421663 118.96718,6.61421663 C117.839529,6.61421663 116.937408,5.70970838 116.937408,4.57907305 C116.937408,3.39190597 117.839529,2.48739771 118.96718,2.48739771 Z M117.388468,22.4431111 L117.388468,9.15814611 L120.489508,9.15814611 L120.489508,22.3865794 L117.388468,22.3865794 L117.388468,22.4431111 Z" id="Shape" fill="#FAFBFC"></path>
                    <path d="M136.333005,18.6554828 C135.600032,20.9732852 133.513877,22.8388335 130.356455,22.8388335 C126.747971,22.8388335 123.590549,20.2383723 123.590549,15.715831 C123.590549,11.5324803 126.691589,8.76242375 130.018159,8.76242375 C134.077703,8.76242375 136.502152,11.4759485 136.502152,15.6592992 C136.502152,16.1680851 136.44577,16.6203392 136.44577,16.676871 L126.804354,16.676871 C126.860736,18.7120146 128.439448,20.1253087 130.412837,20.1253087 C132.329844,20.1253087 133.288347,19.1077369 133.739407,17.8075063 L136.333005,18.6554828 Z M133.34473,14.3590686 C133.288347,12.8327109 132.273461,11.4194168 130.074542,11.4194168 C128.101153,11.4194168 126.973502,12.9457744 126.860736,14.3590686 L133.34473,14.3590686 Z" id="Shape" fill="#FAFBFC"></path>
                    <polygon id="Shape" fill="#FAFBFC" points="139.54681 22.4431111 139.54681 2.71352477 142.704233 2.71352477 142.704233 22.4431111 139.54681 22.4431111"></polygon>
                    <polygon id="Shape" fill="#FAFBFC" points="146.763776 22.4431111 146.763776 2.71352477 149.921199 2.71352477 149.921199 22.4431111 146.763776 22.4431111"></polygon>
                    <path d="M165.708313,18.6554828 C164.97534,20.9732852 162.889186,22.8388335 159.731763,22.8388335 C156.12328,22.8388335 152.965857,20.2383723 152.965857,15.715831 C152.965857,11.5324803 156.066897,8.76242375 159.393468,8.76242375 C163.453011,8.76242375 165.877461,11.4759485 165.877461,15.6592992 C165.877461,16.1680851 165.821078,16.6203392 165.821078,16.676871 L156.179662,16.676871 C156.236045,18.7120146 157.814756,20.1253087 159.788145,20.1253087 C161.705152,20.1253087 162.663655,19.1077369 163.114716,17.8075063 L165.708313,18.6554828 Z M162.720038,14.3590686 C162.663655,12.8327109 161.648769,11.4194168 159.44985,11.4194168 C157.476461,11.4194168 156.34881,12.9457744 156.236045,14.3590686 L162.720038,14.3590686 Z" id="Shape" fill="#FAFBFC"></path>
                    <path d="M173.545487,11.8151391 C173.489105,11.5890121 173.37634,10.9106309 173.37634,10.3453132 C173.37634,7.1795343 175.744407,4.35294599 179.973098,4.35294599 C184.032642,4.35294599 186.513474,7.009939 186.513474,10.1757179 C186.513474,12.4369885 185.273058,14.3590686 183.017756,15.6592992 L179.691185,17.637911 C179.183742,17.9771016 178.732682,18.3162922 178.507152,18.8250781 L186.626239,18.8250781 L186.626239,22.4431111 L173.263575,22.4431111 C173.263575,19.2208005 174.165695,16.5638075 177.435883,14.6417274 L180.311393,12.9457744 C181.720957,12.1543297 182.2284,11.4194168 182.2284,10.2322497 C182.2284,9.10161434 181.439044,8.14057432 179.860333,8.14057432 C178.225239,8.14057432 177.379501,9.27120964 177.379501,10.7410356 C177.379501,11.0802262 177.435883,11.4759485 177.548648,11.8151391 L173.545487,11.8151391 Z" id="Shape" fill="#FF0303"></path>
                    <path d="M189.952809,7.40566136 C191.136843,5.65317661 193.05385,4.40947776 195.92936,4.40947776 C198.80487,4.40947776 200.778259,5.65317661 201.90591,7.40566136 C203.146326,9.27120964 203.428239,11.4759485 203.428239,13.6241556 C203.428239,15.7723627 203.089943,18.0336334 201.90591,19.8426499 C200.721876,21.5951347 198.80487,22.8388335 195.92936,22.8388335 C193.05385,22.8388335 191.136843,21.5386029 189.952809,19.8426499 C188.712393,17.9771016 188.430481,15.7723627 188.430481,13.6241556 C188.430481,11.4759485 188.712393,9.21467788 189.952809,7.40566136 Z M193.335762,17.4683157 C193.843205,18.4293558 194.632561,19.1077369 195.92936,19.1077369 C197.282541,19.1077369 198.015514,18.4293558 198.522957,17.4683157 C199.0304,16.4507439 199.199547,15.0374498 199.199547,13.6241556 C199.199547,12.2108615 199.0304,10.7975673 198.522957,9.77999554 C198.015514,8.81895551 197.282541,8.14057432 195.92936,8.14057432 C194.632561,8.14057432 193.843205,8.81895551 193.335762,9.77999554 C192.828319,10.7975673 192.659172,12.2108615 192.659172,13.6241556 C192.715554,15.0374498 192.884702,16.4507439 193.335762,17.4683157 Z" id="Shape" fill="#FF0303"></path>
                    <path d="M207.88246,17.637911 L207.88246,6.16196251 L203.653769,6.16196251 L203.653769,3.3353742 C206.303749,3.3353742 208.164373,1.80901652 208.446286,0 L212.111151,0 L212.111151,17.637911 L207.88246,17.637911 Z" id="Shape" fill="#FAFBFC"></path>
                    <path d="M228.405708,3.44843773 C227.165292,4.52254129 222.26001,8.98855081 221.527037,17.6944428 L217.072816,17.6944428 C217.805789,8.53629668 223.387661,3.61803303 223.387661,3.61803303 L214.761131,3.61803303 L214.761131,0 L228.462091,0 L228.462091,3.44843773 L228.405708,3.44843773 Z" id="Shape" fill="#FAFBFC"></path>
                    <polygon id="Shape" fill="#FF0303" points="229.307829 29.0573278 226.939762 22.5561747 228.405708 22.5561747 228.405708 20.3514358 223.838722 20.3514358 225.022755 23.68681 219.891943 20.3514358 204.443125 20.3514358 202.638883 22.5561747 219.271735 22.5561747"></polygon>
                    <polygon id="Shape" fill="#FAFBFC" points="176.70291 28.5485419 177.943326 25.2131677 173.37634 25.2131677 173.37634 27.3613748 174.842286 27.3613748 172.417836 33.9190597 182.510313 27.3613748 203.484621 27.3613748 205.288863 25.2131677 181.833722 25.2131677"></polygon>
                </g>
            </g>
        </g>
    </g>
</svg>