<?xml version="1.0" encoding="UTF-8"?>
<svg width="35px" height="36px" viewBox="0 0 35 36" version="1.1" xmlns="http://www.w3.org/2000/svg" xmlns:xlink="http://www.w3.org/1999/xlink">
    <!-- Generator: Sketch 43 (38999) - http://www.bohemiancoding.com/sketch -->
    <title>ic-comparateur</title>
    <desc>Created with Sketch.</desc>
    <defs></defs>
    <g id="Page-1" stroke="none" stroke-width="1" fill="none" fill-rule="evenodd">
        <g id="XL-autour-de-l'election" transform="translate(-125.000000, -286.000000)">
            <g id="carte-4" transform="translate(96.000000, 201.000000)">
                <g id="content" transform="translate(24.000000, 70.000000)">
                    <g id="PICTO" transform="translate(5.000000, 15.000000)">
                        <g id="ic-comparateur">
                            <g id="prog" opacity="0.400000006" transform="translate(8.000000, 0.000000)">
                                <path d="M3.29296605,0 C1.50302241,0 6.06060605e-05,1.42632718 6.06060605e-05,3.18594893 L6.06060605e-05,5.30999994 L6.69006066,5.30999994 L6.69006066,3.18594893 C6.69006066,1.42632718 5.08290968,0 3.29296605,0" id="Fill-1" fill="#190A52"></path>
                                <path d="M18.6859326,1 C20.7057378,1 22.3429663,2.65247937 22.3429663,4.69109903 L22.3429663,18.308901 C22.3429663,20.347225 23.9804878,22 26,22 L10.3140674,22 C8.29426224,22 6.65703369,20.347225 6.65703369,18.308901 L6.65703369,4.69109903 C6.65703369,2.65247937 5.01980513,1 3,1 L18.6859326,1 Z" id="Stroke-5" stroke="#190A52" stroke-width="1.5" stroke-linecap="round" stroke-linejoin="round"></path>
                            </g>
                            <g id="loupe" opacity="0.8" transform="translate(0.000000, 8.000000)" stroke="#190A52">
                                <path d="M11.6729599,15.4976165 L10.0279496,17.1192933" id="Stroke-3" stroke-width="3" stroke-linecap="round" stroke-linejoin="round"></path>
                                <polygon id="Stroke-7" fill="#190A52" stroke-linecap="round" stroke-linejoin="round" points="1.79671324 26.6606601 0.267635466 25.1532714 9.22469516 16.3235262 10.7537729 17.8306509"></polygon>
                                <path d="M26.3615129,9.14602254 C26.3612489,13.8862071 22.5187406,17.7289794 17.778556,17.7289794 C13.0383714,17.7289794 9.19559914,13.8862071 9.19559914,9.14602254 C9.19559914,4.40583795 13.0383714,0.563329615 17.778556,0.563329615 C22.5187406,0.563329615 26.3615129,4.40583795 26.3615129,9.14602254 Z" id="Stroke-1" stroke-width="2" stroke-linecap="round" stroke-linejoin="round"></path>
                                <path d="M18.5,6.5 L25.5,6.5" id="Line" stroke-linecap="square"></path>
                                <path d="M18.5,8.5 L25.5,8.5" id="Line" stroke-linecap="square"></path>
                                <path d="M18.5,4.5 L24.5,4.5" id="Line" stroke-linecap="square"></path>
                                <path d="M18.5,2.5 L23.5,2.5" id="Line" stroke-linecap="square"></path>
                            </g>
                        </g>
                    </g>
                </g>
            </g>
        </g>
    </g>
</svg>