<?xml version="1.0" encoding="utf-8"?>
<!-- Generator: Adobe Illustrator 19.1.0, SVG Export Plug-In . SVG Version: 6.00 Build 0)  -->
<!DOCTYPE svg PUBLIC "-//W3C//DTD SVG 1.1//EN" "http://www.w3.org/Graphics/SVG/1.1/DTD/svg11.dtd">
<svg version="1.1" id="Calque_1" xmlns="http://www.w3.org/2000/svg" xmlns:xlink="http://www.w3.org/1999/xlink" x="0px" y="0px"
	 viewBox="-210.9 132.6 367 60.4" style="enable-background:new -210.9 132.6 367 60.4;" xml:space="preserve">
<style type="text/css">
	.st0{fill:none;stroke:#E42521;stroke-width:4;stroke-miterlimit:10;}
	.st1{fill:#FF0303;}
	.st2{fill:#FAFBFC;}
</style>
<g>
	<g>
		<path class="st0" d="M118.4,167.9"/>
		<g>
			<g>
				<path class="st1" d="M56.5,153.7c-0.1-0.4-0.3-1.6-0.3-2.6c0-5.6,4.2-10.7,11.8-10.7c7.2,0,11.7,4.7,11.7,10.3
					c0,4.1-2.2,7.4-6.2,9.8l-6,3.5c-0.9,0.6-1.7,1.2-2.1,2.1h14.5v6.4H56c0-5.8,1.6-10.5,7.4-13.8l5.1-3c2.5-1.5,3.4-2.8,3.4-4.8
					s-1.4-3.7-4.2-3.7c-3,0-4.4,2-4.4,4.6c0,0.6,0.1,1.3,0.3,1.9H56.5z"/>
				<path class="st1" d="M85.8,145.8c2.1-3.1,5.6-5.4,10.6-5.4c5.1,0,8.6,2.2,10.7,5.4c2.2,3.3,2.8,7.2,2.8,11.1
					c0,3.9-0.6,7.8-2.8,11.1c-2.1,3.1-5.6,5.4-10.7,5.4s-8.6-2.3-10.6-5.4c-2.2-3.3-2.8-7.2-2.8-11.1C83,153,83.7,149.1,85.8,145.8z
					 M91.9,163.7c0.9,1.7,2.3,2.9,4.6,2.9c2.4,0,3.7-1.2,4.6-2.9c0.9-1.8,1.2-4.3,1.2-6.8s-0.3-5-1.2-6.8c-0.9-1.7-2.2-2.9-4.6-2.9
					c-2.3,0-3.7,1.2-4.6,2.9c-0.9,1.8-1.2,4.3-1.2,6.8S91,161.9,91.9,163.7z"/>
			</g>
		</g>
		<g>
			<path class="st2" d="M117.8,164.1v-20.5h-7.5v-5.1c4.7,0,8-2.7,8.6-5.9h6.5V164L117.8,164.1z"/>
			<path class="st2" d="M154.4,138.7c-2.2,1.9-10.9,9.8-12.3,25.3h-7.9c1.3-16.3,11.2-25,11.2-25H130v-6.4h24.4L154.4,138.7
				L154.4,138.7z"/>
		</g>
		<g>
			<polygon class="st1" points="156.1,184.4 151.8,172.7 154.4,172.7 154.4,168.8 146.2,168.8 148.4,174.8 139.3,168.8 111.6,168.8
				108.4,172.7 138.1,172.7 			"/>
			<polygon class="st2" points="62.2,183.4 64.4,177.4 56.3,177.4 56.3,181.3 58.8,181.3 54.6,193 72.5,181.3 109.9,181.3
				113.1,177.4 71.4,177.4 			"/>
		</g>
		<g>
			<path class="st2" d="M-210.8,172.6v-35.7h6v30h16.4v5.7H-210.8z"/>
			<path class="st2" d="M-162.6,165.6c-1.3,4.3-5.2,7.8-11.1,7.8c-6.6,0-12.5-4.8-12.5-13.1c0-7.8,5.7-12.9,11.9-12.9
				c7.6,0,12,5,12,12.7c0,1-0.1,1.8-0.2,1.9h-17.9c0.2,3.7,3.1,6.4,6.7,6.4c3.5,0,5.3-1.9,6.1-4.3L-162.6,165.6z M-168.2,157.6
				c-0.1-2.9-2-5.4-6-5.4c-3.7,0-5.8,2.8-6,5.4H-168.2z M-172.1,145h-4.8l4.5-7.4h6.9L-172.1,145z"/>
			<path class="st2" d="M-154,172.5c0.4,3,2.8,5.3,6.1,5.3c4.6,0,6.9-2.4,6.9-7.3v-2.6c-1.1,1.9-3.5,3.6-7.1,3.6
				c-6.5,0-11.3-5-11.3-11.9c0-6.5,4.6-11.9,11.3-11.9c3.8,0,6.2,1.6,7.2,3.6v-3.1h5.6v22c0,6.5-3.4,12.6-12.6,12.6
				c-6.5,0-11-4-11.7-9L-154,172.5z M-140.7,159.5c0-4.2-2.7-6.9-6.3-6.9c-3.7,0-6.4,2.7-6.4,6.9c0,4.3,2.6,6.9,6.4,6.9
				C-143.3,166.5-140.7,163.7-140.7,159.5z"/>
			<path class="st2" d="M-125.9,135.6c2.1,0,3.8,1.7,3.8,3.8s-1.7,3.8-3.8,3.8s-3.8-1.7-3.8-3.8C-129.7,137.3-128,135.6-125.9,135.6
				z M-128.8,172.6V148h5.8v24.5L-128.8,172.6L-128.8,172.6z"/>
			<path class="st2" d="M-113.4,164.5c0.2,2.2,1.9,4.2,5,4.2c2.4,0,3.7-1.3,3.7-2.8c0-1.3-0.9-2.3-2.9-2.7l-3.6-0.8
				c-4.3-1-6.6-3.8-6.6-7.1c0-4.3,3.9-7.9,9-7.9c6.8,0,9.1,4.4,9.5,6.8l-4.9,1.4c-0.2-1.4-1.3-3.7-4.5-3.7c-2.1,0-3.5,1.3-3.5,2.8
				c0,1.3,1,2.3,2.5,2.6l3.7,0.8c4.6,1,7,3.8,7,7.4c0,3.7-3,7.9-9.3,7.9c-7.1,0-9.8-4.6-10.1-7.4L-113.4,164.5z"/>
			<path class="st2" d="M-94.2,172.6v-36.5h5.8v36.4L-94.2,172.6L-94.2,172.6z"/>
			<path class="st2" d="M-75.8,158.5l6.3-1c1.4-0.2,1.8-0.9,1.8-1.8c0-2.1-1.4-3.7-4.6-3.7c-3.1,0-4.8,2-5,4.4l-5.3-1.2
				c0.5-4.2,4.3-8,10.3-8c7.6,0,10.4,4.3,10.4,9.2v12.2c0,2.2,0.3,3.7,0.3,3.9H-67c0-0.2-0.3-1.2-0.3-3.1c-1.2,1.9-3.6,3.9-7.6,3.9
				c-5.1,0-8.3-3.5-8.3-7.4C-83.2,161.5-80,159.1-75.8,158.5z M-67.7,162.4v-1.1l-6.4,1c-1.8,0.3-3.3,1.3-3.3,3.3
				c0,1.7,1.3,3.2,3.6,3.2C-70.5,168.7-67.7,167.2-67.7,162.4z"/>
			<path class="st2" d="M-48.5,148h5.1v5.2h-5.1v11.4c0,2.2,1,3.1,3.1,3.1c0.8,0,1.8-0.2,2-0.2v4.8c-0.4,0.2-1.5,0.6-3.6,0.6
				c-4.5,0-7.3-2.7-7.3-7.3v-12.4h-4.5V148h1.3c2.6,0,3.8-1.7,3.8-3.8v-3.7h5.3L-48.5,148L-48.5,148z"/>
			<path class="st2" d="M-35.4,135.6c2.1,0,3.8,1.7,3.8,3.8s-1.7,3.8-3.8,3.8s-3.8-1.7-3.8-3.8C-39.2,137.3-37.5,135.6-35.4,135.6z
				 M-38.3,172.6V148h5.8v24.5L-38.3,172.6L-38.3,172.6z"/>
			<path class="st2" d="M-13.3,172.6h-5.8l-10-24.5h6.4l6.5,17.5l6.3-17.5h6.1L-13.3,172.6z"/>
			<path class="st2" d="M20.7,165.6c-1.3,4.3-5.2,7.8-11.1,7.8c-6.6,0-12.5-4.8-12.5-13.1c0-7.8,5.7-12.9,11.9-12.9
				c7.6,0,12,5,12,12.7c0,1-0.1,1.8-0.2,1.9H2.9c0.2,3.7,3.1,6.4,6.7,6.4c3.5,0,5.3-1.9,6.1-4.3L20.7,165.6z M15.1,157.6
				c-0.1-2.9-2-5.4-6-5.4c-3.7,0-5.8,2.8-6,5.4H15.1z"/>
			<path class="st2" d="M28.7,164.5c0.2,2.2,1.9,4.2,5,4.2c2.4,0,3.7-1.3,3.7-2.8c0-1.3-0.9-2.3-2.9-2.7l-3.6-0.8
				c-4.3-1-6.6-3.8-6.6-7.1c0-4.3,3.9-7.9,9-7.9c6.8,0,9.1,4.4,9.5,6.8l-4.9,1.4c-0.2-1.4-1.3-3.7-4.5-3.7c-2.1,0-3.5,1.3-3.5,2.8
				c0,1.3,1,2.3,2.5,2.6l3.7,0.8c4.6,1,7,3.8,7,7.4c0,3.7-3,7.9-9.3,7.9c-7.1,0-9.8-4.6-10.1-7.4L28.7,164.5z"/>
		</g>
	</g>
</g>
</svg>
