<svg xmlns="http://www.w3.org/2000/svg" width="17" height="13" viewBox="0 0 17 13" version="1.1"><title>Fill 1</title><desc>Created with Sketch.</desc><g stroke="none" stroke-width="1" fill="none" fill-rule="evenodd"><g transform="translate(-41.000000, -5333.000000)" fill="#3A4253"><g transform="translate(14.000000, 1943.000000)"><g transform="translate(1.000000, 3217.000000)"><g transform="translate(17.000000, 162.000000)"><path d="M17.4 15.9C16.4 15.9 15.6 16.6 15.6 17.6 15.6 18.6 16.4 19.4 17.4 19.4 18.4 19.4 19.2 18.6 19.2 17.6 19.2 16.6 18.4 15.9 17.4 15.9M11.5 15.3C11.4 15.3 11.3 15.2 11.3 15.1L11.3 14.6C11.3 14.5 11.3 14.3 11.5 14.3L13.3 14.3C13.5 14.3 13.6 14.5 13.6 14.6L13.6 15.1C13.6 15.2 13.5 15.3 13.3 15.3L11.5 15.3M17.4 21L17.4 21C15.5 21 14 19.4 14 17.6 14 15.7 15.5 14.2 17.4 14.2 19.2 14.2 20.8 15.7 20.8 17.6 20.8 19.4 19.2 21 17.4 21M18.8 11L15.9 11C14.8 11 14.6 11.2 14.3 11.9L14.1 12.7 14 12.8 10.8 12.8C9.5 12.8 9 13.3 9 14.6L9 21.4C9 22.8 9.5 23.2 10.8 23.2L24 23.2C25.3 23.2 25.8 22.8 25.8 21.4L25.8 14.6C25.8 13.3 25.3 12.8 24 12.8L20.8 12.8 20.8 12.7 20.5 11.9C20.2 11.2 20.2 11 18.8 11"/></g></g></g></g></g></svg>