<svg xmlns="http://www.w3.org/2000/svg" width="10" height="16" viewBox="0 0 10 16" version="1.1"><title>¶</title><desc>Created with Sketch.</desc><g stroke="none" stroke-width="1" fill="none" fill-rule="evenodd"><g transform="translate(-24.000000, -8511.000000)" fill="#747B83"><g transform="translate(23.000000, 8490.000000)"><path d="M10.3 21L7.5 21 7.5 33C7.5 35.5 7.1 36.4 5.6 36.4 5.3 36.4 4.9 36.4 4.7 36.3 4.5 35.7 4.3 35 4 34.5L3.6 34.5 3.6 36.8C4.1 36.9 4.7 37 5.3 37 7.6 37 8.9 35.7 8.9 32.6L8.9 21.8C9.4 21.7 9.9 21.5 10.3 21.3L10.3 21ZM6.2 30.8L6.2 21C2.9 21 1 23.2 1 25.8 1 28.5 2.6 30.8 6.2 30.8L6.2 30.8Z"/></g></g></g></svg>