<?xml version="1.0" encoding="UTF-8"?>
<svg width="18px" height="18px" viewBox="0 0 18 18" version="1.1" xmlns="http://www.w3.org/2000/svg" xmlns:xlink="http://www.w3.org/1999/xlink">
    <defs></defs>
    <g id="Symbols" stroke="none" stroke-width="1" fill="none" fill-rule="evenodd">
        <g id="HOME-/-S-/-FLUX-/-Une-Abo" transform="translate(-23.000000, -278.000000)">
            <g id="Marqueur-Abo">
                <g transform="translate(23.000000, 278.000000)">
                    <rect id="Rectangle-610" fill="#FFC600" x="0" y="0" width="18" height="18" rx="3"></rect>
                    <path d="M13.3388871,5.93957182 C12.9166618,6.20022888 12.7762787,6.5520534 12.7762787,7.09607088 L12.7762787,11.4365935 C12.7762787,11.7093878 12.8089271,11.8332273 12.9492997,11.9131205 L13.0899571,11.9927371 L13.4787217,11.7538983 L13.608767,12.0266926 L12.257743,12.8770394 L11.7933226,12.5477412 C11.5873894,12.4004902 11.5005941,12.2190183 11.5005941,11.8674815 L11.5005941,7.99134862 C11.5005941,7.26626858 11.7174347,6.88035584 12.0199631,6.64280043 L12.1929841,6.50683479 L10.9178481,5.7242772 L10.3451761,6.08680063 L10.3451761,11.7316375 C10.3451761,12.2076003 10.2804277,12.2757988 9.87995399,12.4909385 C9.87995399,12.4909385 9.56707729,12.6498841 9.13560071,12.88786 L9.04895306,12.88786 L9.04895306,6.63138237 C9.04895306,6.32565052 9.01603033,6.25715322 8.85403278,6.12134247 L8.40064639,5.7361157 L7.84918802,6.064396 L7.84918802,9.30650562 C7.84918802,9.8729056 7.76295178,10.2809574 7.33064184,10.5640081 L6.2503206,11.2782343 L6.14161546,11.0859086 C6.47706654,10.813402 6.55242699,10.4276109 6.55242699,9.97449536 L6.55242699,6.66520506 C6.55242699,6.17768042 6.48821659,5.98522193 6.00138003,6.07596896 C5.81787353,6.10948185 5.53684359,6.1551541 5.36394915,6.17768042 C4.65048268,6.27997828 4.34768007,5.74710226 4.83410523,5.07854826 C4.83410523,5.07854826 4.9532853,4.9084612 5.25566596,4.5 L5.49399446,4.67049643 L5.32055148,4.93116455 C5.093795,5.27171485 5.27742809,5.45291018 5.64511622,5.3163692 C5.81787353,5.24831446 6.15263893,5.11276925 6.39041889,5.01020586 C7.41661437,4.59116746 7.79517829,5.28255758 7.84918802,5.69074218 L9.12473547,4.88593487 L10.2260066,5.76965072 L11.5873894,4.88593487 L12.635885,5.50954686 C12.9922859,5.7242772 13.1653281,5.63381784 13.4139733,5.49756453 L13.6193685,5.38442394 L13.78125,5.66791713 L13.3388871,5.93957182 L13.3388871,5.93957182 Z M6.67145938,12.88786 C6.56345046,12.5699799 6.2503206,12.2415446 5.68810248,12.2190183 C5.15826911,12.2076003 4.40181639,12.4233264 3.77554611,12.9221031 L3.65625,12.7631796 C4.1104381,12.2415446 5.16941917,11.4032023 6.28213571,11.3915077 C6.86611594,11.3915077 7.27664266,11.5958268 7.5684218,11.9245386 L8.05499464,11.6409016 L8.19552544,11.9359456 L6.67145938,12.88786 L6.67145938,12.88786 Z" id="M-abo-2" fill="#FFFFFF"></path>
                </g>
            </g>
        </g>
    </g>
</svg>
