<svg width="15" height="16" viewBox="0 0 15 16" xmlns="http://www.w3.org/2000/svg"><title>Icone horloge</title><path d="M7.5.712a7.35 7.35 0 0 0-2.92.585c-.914.391-1.71.926-2.39 1.605A7.526 7.526 0 0 0 .587 5.291 7.35 7.35 0 0 0 0 8.21a7.35 7.35 0 0 0 .586 2.921c.39.914.925 1.71 1.605 2.389a7.526 7.526 0 0 0 2.388 1.605 7.35 7.35 0 0 0 2.921.586 7.35 7.35 0 0 0 2.92-.586 7.526 7.526 0 0 0 2.39-1.605 7.526 7.526 0 0 0 1.604-2.389A7.35 7.35 0 0 0 15 8.212a7.35 7.35 0 0 0-.586-2.921 7.526 7.526 0 0 0-1.605-2.389 7.526 7.526 0 0 0-2.388-1.605A7.35 7.35 0 0 0 7.5.712zm-.054 13.575c-.841 0-1.629-.159-2.362-.478a6.266 6.266 0 0 1-1.929-1.298 5.931 5.931 0 0 1-1.298-1.929 5.98 5.98 0 0 1-.469-2.352 5.96 5.96 0 0 1 1.767-4.282 6.266 6.266 0 0 1 1.93-1.298 5.863 5.863 0 0 1 2.36-.478c.83 0 1.614.16 2.354.478.739.318 1.382.75 1.929 1.298.547.547.98 1.187 1.298 1.92.318.733.478 1.52.478 2.362 0 .829-.16 1.613-.478 2.352a6.126 6.126 0 0 1-1.298 1.93c-.547.546-1.19.979-1.93 1.297a5.882 5.882 0 0 1-2.352.478zm1.749-5.715H7.464V5.67a.57.57 0 0 0-.162-.405.525.525 0 0 0-.397-.171.554.554 0 0 0-.406.17.554.554 0 0 0-.17.406v3.48c0 .156.056.289.17.397a.57.57 0 0 0 .406.162h2.29a.54.54 0 0 0 .396-.162.54.54 0 0 0 .163-.397.57.57 0 0 0-.163-.406.525.525 0 0 0-.396-.17z" fill="#3A4253" fill-rule="evenodd"/></svg>