<svg width="187" height="22" viewBox="0 0 187 22" xmlns="http://www.w3.org/2000/svg" xmlns:xlink="http://www.w3.org/1999/xlink"><title>Group</title><defs><path id="a" d="M0 .245v19.798h22.36V.245H0z"/></defs><g fill="none" fill-rule="evenodd"><g fill="#8F98A9"><path d="M11.908 3.957c-.083-.388-.752-1.279-1.502-1.279a1.38 1.38 0 0 0-.39.057c.723.278 1.28.999 1.447 1.501l.417-.25v-.029h.028zM16.8 21.197l-2.784-1.835c-.334-.221-.723-.639-.723-1.417v-6.647l-.279.167-.11.056v6.618c0 .556.304 1.14.721 1.418l2.813 1.863.361-.223zM4.952 14.524c.056-1.14-.193-2.53-.444-3.866-.25-1.362-.475-2.753-.446-3.975.028-.75.167-1.473.473-2.14-.529.805-.862 1.722-.89 2.696-.084 2.363 1.057 5.449.945 7.841-.027.362-.055.723-.082.973l.055-.056c.223-.306.362-.778.39-1.473M8.624 21.142c-.417-.863-1.417-1.39-2.586-1.39-.112.027-.223.027-.334.027 1.14.196 2.114.834 2.476 1.64l.444-.277zM18.493 11.326l-.947-1.084.029.722.5.613zM44.91 5.515l-2.227-1.308.335-.221 2.142 1.252c-.083.083-.167.166-.25.277M45.466 21.365l-.974-.668c-.64-.445-.973-1.196-.973-2.03V9.38c0-1.279.278-2.169.723-2.78-.25.611-.362 1.362-.362 2.225l.027 9.509c0 1.029.307 1.696 1.03 2.197l.891.613-.362.222zM37.565 21.28s-.084.057-.14.085h-.222V5.849c0-.75-.055-.75-.5-1.085l-.64-.5.418-.222c.334.277.835.667.835.695.194.195.249.305.249.75v15.821-.028zM26.24 2.29c-.222.64-.194 1.25.084 1.752.251.444.695.75 1.225.89-1.642.138-2.365-1.168-1.309-2.643M30.582 15.664c.138-.445.195-.946.195-1.474V6.098c0-.973-.057-1.083-.391-1.389h.056c.473-.084.723 0 .723.833v8.12c0 .945-.165 1.557-.583 2.002M31.081 21.365c-.22-.724-.89-1.336-2.058-1.503.168-.026.334-.026.502-.026 1.445.026 1.863.916 1.947 1.195l.027.082-.418.252zM72.258 21.17l-.833-.5c-.752-.447-1.142-1.14-1.142-2.198v-7.535c0-.444-.027-.416-.195-.556 0 0-.584-.473-.974-.779l-.416.224.806.61c.446.334.39.362.39 1.03v7.312c0 1 .417 1.696 1.001 2.031l1.002.556.361-.195zM64.467 21.308V9.99l-.361-.416-.445.25.417.473v11.067h.224c.055-.029.138-.057.138-.057h.027zM55.654 21.226l-3.2-1.92c-.64-.389-.89-.861-.89-1.696v-6.284l-.278.14-.112.055v6.395c0 .751.333 1.306.918 1.641l3.199 1.863.363-.194zM57.38 17.666v-6.34c0-.334-.11-.446-.363-.584l-1.308-.778v.417l.752.417c.556.305.556.361.556.946l-.027 5.7.39.222zM82.742 6.21v-.083c0-.779-.473-1.585-1.198-2.002-.277-.168-.527-.306-.527-.306l-.333.223.193.11c.946.53 1.477 1.196 1.477 2.28l.388-.222zM92.873 21.197l-2.81-1.835c-.333-.221-.724-.639-.724-1.417v-6.647l-.278.167-.112.056v6.533c0 .724.28 1.225.752 1.531l2.782 1.835.39-.223zM81.017 21.197l-3.006-1.891c-.722-.443-.862-.861-.862-1.67V11.66l-.223.112-.166.083v5.922c0 .946.306 1.364.779 1.669l3.115 1.974.363-.223zM94.4 11.326l-.946-1.084.028.722.5.613zM82.854 17.61V8.795l-.5.251v8.313z"/></g><g transform="translate(0 .988)"><mask id="b" fill="#fff"><use xlink:href="#a"/></mask><path d="M12.519 17.709l-.333-.668-.862.555c-.639-.78-1.67-1.697-4.117-1.697-2.588-.027-5.76 2.03-7.207 3.81l.25.334c1.975-1.308 4.008-1.89 5.788-1.89 1.447 0 2.643.695 3.143 1.723l3.338-2.167zm2.673-15.24C14.69 1.69 13.355.245 10.712.245 7.54.218 4.759 2.692 4.647 5.695c-.084 2.392 1.057 5.478.945 7.87-.055.806-.223 1.39-.555 1.834l.332.39 1.949-1.418c.946-.697 1.474-1.558 1.446-3.059-.027-1.863-.89-4.727-.89-6.923 0-1.892.724-3.31 2.365-3.31 1.113 0 2.003 1.14 2.142 1.78.057.305 0 .444-.278.639l-.779.53v.86l3.868-2.42zm7.168 7.397L18.63 5.751l-5.816 3.391v.779l1.197-.667v7.703c0 .444.167.723.445.918l3.089 2.001 4.369-2.531-.362-.779-2.282 1.224-2.058-1.419c-.25-.165-.279-.332-.279-.694v-2.503l5.426-3.308zm-2.922.612l-2.504 1.557v-4.06l.223-.139 2.28 2.642z" fill="#1A171B" mask="url(#b)"/></g><path d="M32.084 20.836c-.278-.78-1.084-1.586-2.532-1.64-1.364-.029-3.312.5-4.924 1.724l-.307-.39c1.169-1.28 3.896-3.336 6.76-3.365 1.504 0 2.561.501 3.312 1.307l1.253-.695.362.724-3.924 2.335zM49.251 3.79c-1.087.64-1.449 1.503-1.449 2.837v10.648c0 .67.085.974.446 1.17l.362.195 1.002-.586.334.67-3.478 2.085-1.196-.807c-.53-.362-.754-.807-.754-1.67V8.825c0-1.78.558-2.726 1.337-3.309l.446-.333-3.283-1.92-1.475.89v13.847c0 1.168-.167 1.335-1.198 1.863 0 0-.805.39-1.916.974h-.223V5.487c0-.75-.085-.918-.502-1.25l-1.168-.946-1.42.806v7.953c0 1.39-.222 2.39-1.335 3.085L31 16.887l-.28-.472c.863-.668 1.057-1.615 1.057-2.726V5.57c0-1.195-.165-1.668-1.418-1.445a40.36 40.36 0 0 1-1.642.25c-1.837.25-2.616-1.057-1.364-2.697 0 0 .307-.417 1.085-1.42l.614.419-.446.64c-.584.835-.111 1.28.835.945.445-.168 1.307-.5 1.92-.752 2.642-1.028 3.616.668 3.756 1.67L38.4 1.205l2.836 2.168 3.506-2.168 2.7 1.53c.917.527 1.362.305 2.003-.03l.529-.277.416.696-1.139.666zM62.137 17.444l-.251-.612-.973.5V9.797c0-.388-.139-.695-.528-.919l-3.59-2.14-5.816 3.392v.807l1.198-.695v7.368c0 .667.165.918.584 1.168l3.533 2.086 5.843-3.42zm13.795 1.584l-.278-.64-1.03.586-.36-.223c-.39-.223-.475-.502-.475-1.169v-7.98c0-.64-.138-.917-.529-1.195l-2.143-1.614-3.31 1.892-1.753-1.892-3.506 2.143.474.554 1.195-.72.863.971V20.81h.222c1.392-.614 1.837-.807 1.837-.807.668-.28.863-.501.863-1.279V9.49l1.142-.666 1.335 1.057c.36.305.416.555.416 1.027l.028 7.565c0 .833.25 1.306.807 1.64l1.17.696 3.032-1.78zm-17.941-.416l-.166.028-2.283-1.336c-.388-.222-.474-.472-.474-.973l.03-7.313.166-.056 2.198 1.28c.444.25.529.473.529.945v7.425zM83.354 18.612l-.167.028-1.975-1.281c-.389-.25-.528-.444-.528-.944v-7.09L83.16 7.82l.195.112v10.679zm4.118-1.14l-.25-.64-1.002.527V5.57c0-1.723-.778-2.835-2.058-3.614l-1.252-.78-3.924 2.28.779.363 1.281-.695.833.472c.89.5 1.475 1.503 1.475 2.53v.445l-6.733 3.892v.752l1.14-.612v7.063c0 .61.167.862.556 1.112l3.34 2.086 5.815-3.392zm10.823-6.618l-3.757-4.116-5.814 3.392v.778l1.196-.666v7.703c0 .444.167.722.445.918l3.089 2 4.367-2.53-.332-.779-2.283 1.224-2.059-1.42c-.279-.193-.306-.332-.306-.693v-2.503l5.454-3.308zm-2.949.611l-2.505 1.557v-4.06l.251-.138 2.254 2.641z" fill="#1A171B"/><g fill="#FFC600"><path d="M114.202 20.165l-.886-2.635h-5.08l-.888 2.635h-2.078l4.719-13.12h1.573l4.72 13.12h-2.08zm-3.382-10.153l-2.007 5.822h3.96l-1.953-5.822zM123.318 20.165h-5.207V7.045h5.008c2.387 0 3.888 1.382 3.888 3.593 0 1.419-.868 2.433-1.736 2.783.994.405 1.935 1.382 1.935 3.04 0 2.414-1.61 3.704-3.888 3.704zm-.362-11.333h-2.893v3.76h2.893c1.248 0 2.099-.664 2.099-1.88 0-1.216-.851-1.88-2.1-1.88zm.18 5.547h-3.073v3.999h3.074c1.357 0 2.116-.848 2.116-2.009s-.76-1.99-2.116-1.99zM137.587 18.949c-.832.847-1.916 1.326-3.328 1.326-1.41 0-2.495-.479-3.327-1.326-1.265-1.29-1.302-2.598-1.302-5.344 0-2.746.037-4.054 1.302-5.344.832-.847 1.917-1.327 3.327-1.327 1.412 0 2.496.48 3.328 1.327 1.266 1.29 1.302 2.598 1.302 5.344 0 2.746-.036 4.054-1.302 5.344zm-1.41-9.435a2.566 2.566 0 0 0-1.918-.81c-.777 0-1.428.294-1.916.81-.633.7-.76 1.493-.76 4.09 0 2.599.127 3.373.76 4.073a2.58 2.58 0 0 0 1.916.83c.778 0 1.43-.314 1.918-.83.65-.681.759-1.474.759-4.072s-.108-3.409-.76-4.09zM149.687 20.165l-5.95-9.232v9.232h-1.953V7.045h1.79l5.95 9.213V7.045h1.953v13.12h-1.79M162.744 20.165l-5.95-9.232v9.232h-1.953V7.045h1.79l5.95 9.213V7.045h1.953v13.12h-1.79M167.9 20.165V7.045h8.227v1.787h-6.275v3.833h5.353v1.769h-5.353v3.944h6.275v1.787H167.9zm4.393-14.392H170.9l1.357-2.985h2.043l-2.007 2.985zM182.222 20.275c-1.935 0-3.31-.46-4.557-1.732l1.284-1.308c.94.958 2.007 1.271 3.31 1.271 1.698 0 2.657-.737 2.657-2.027 0-.59-.145-1.05-.506-1.363-.326-.295-.76-.461-1.41-.553l-1.52-.22c-1.048-.167-1.861-.499-2.422-1.051-.634-.59-.959-1.437-.959-2.524 0-2.286 1.627-3.834 4.304-3.834 1.717 0 2.893.443 3.996 1.493l-1.23 1.253c-.795-.774-1.735-1.013-2.839-1.013-1.518 0-2.332.847-2.332 2.045 0 .48.127.921.47 1.216.325.295.705.479 1.41.59l1.537.239c1.176.184 1.826.461 2.387.977.687.645 1.049 1.548 1.049 2.69 0 2.414-1.917 3.851-4.63 3.851"/></g></g></svg>
